<svg width="832" height="173" viewBox="0 0 832 173" fill="none" xmlns="http://www.w3.org/2000/svg">
<rect width="832" height="173" fill="white"/>
<path d="M158.707 97.7071C159.098 97.3166 159.098 96.6834 158.707 96.2929L152.343 89.9289C151.953 89.5384 151.319 89.5384 150.929 89.9289C150.538 90.3195 150.538 90.9526 150.929 91.3431L156.586 97L150.929 102.657C150.538 103.047 150.538 103.681 150.929 104.071C151.319 104.462 151.953 104.462 152.343 104.071L158.707 97.7071ZM108 98H158V96H108V98Z" fill="black"/>
<path d="M161 64C161 61.2386 163.239 59 166 59H264C266.761 59 269 61.2386 269 64V129C269 131.761 266.761 134 264 134H166C163.239 134 161 131.761 161 129V64Z" fill="#8DA0CB"/>
<path d="M197.473 101H196.309V91.3467H194.221V90.292H199.568V91.3467H197.473V101ZM203.391 92.8188C203.503 92.8188 203.616 92.8286 203.728 92.8481C203.84 92.8628 203.958 92.8896 204.08 92.9287L203.904 94.0859C203.816 94.0469 203.723 94.02 203.625 94.0054C203.528 93.9907 203.423 93.9834 203.311 93.9834C203.091 93.9834 202.888 94.0566 202.703 94.2031C202.522 94.3447 202.366 94.5449 202.234 94.8037C202.102 95.0625 202 95.3628 201.926 95.7046C201.858 96.0464 201.826 96.415 201.831 96.8105V101H200.703V92.958H201.582L201.736 94.3862H201.809C201.921 94.0786 202.053 93.8076 202.205 93.5732C202.356 93.3389 202.529 93.1558 202.725 93.0239C202.925 92.8872 203.147 92.8188 203.391 92.8188ZM207.354 92.8115C208.096 92.8115 208.625 93.0483 208.943 93.522C209.26 93.9956 209.419 94.6816 209.419 95.5801V101H208.562L208.394 99.8574H208.364C208.237 100.131 208.086 100.365 207.91 100.561C207.734 100.751 207.534 100.897 207.31 101C207.085 101.098 206.826 101.146 206.533 101.146C206.118 101.146 205.779 101.037 205.515 100.817C205.251 100.597 205.056 100.309 204.929 99.9526C204.802 99.5913 204.739 99.2031 204.739 98.7881C204.739 97.9922 204.968 97.3745 205.427 96.9351C205.886 96.4956 206.538 96.2563 207.383 96.2173L208.298 96.1587V95.6094C208.298 94.9648 208.21 94.4937 208.035 94.1958C207.859 93.8979 207.576 93.749 207.185 93.749C206.96 93.749 206.724 93.7881 206.475 93.8662C206.23 93.9443 205.964 94.0688 205.676 94.2397L205.317 93.3901C205.62 93.1948 205.942 93.0508 206.284 92.958C206.631 92.8604 206.987 92.8115 207.354 92.8115ZM208.313 96.9863L207.566 97.0376C207 97.0718 206.577 97.2329 206.299 97.521C206.025 97.8042 205.889 98.2168 205.889 98.7588C205.889 99.2617 205.979 99.6328 206.16 99.8721C206.34 100.111 206.589 100.231 206.907 100.231C207.351 100.231 207.695 100.016 207.939 99.5864C208.188 99.1567 208.313 98.5635 208.313 97.8066V96.9863ZM212.502 92.958V101H211.382V92.958H212.502ZM211.96 89.9404C212.19 89.9404 212.356 90.0137 212.458 90.1602C212.566 90.3066 212.62 90.5093 212.62 90.7681C212.62 91.022 212.563 91.2222 212.451 91.3687C212.339 91.5151 212.175 91.5884 211.96 91.5884C211.75 91.5884 211.584 91.5151 211.462 91.3687C211.34 91.2222 211.279 91.022 211.279 90.7681C211.279 90.4995 211.338 90.2944 211.455 90.1528C211.572 90.0112 211.741 89.9404 211.96 89.9404ZM217.366 92.8115C218 92.8115 218.481 93.0337 218.809 93.478C219.136 93.9224 219.299 94.6035 219.299 95.5215V101H218.171V95.7485C218.171 95.0991 218.086 94.6133 217.915 94.291C217.749 93.9688 217.485 93.8076 217.124 93.8076C216.597 93.8076 216.211 94.042 215.967 94.5107C215.723 94.9795 215.601 95.7314 215.601 96.7666V101H214.473V92.958H215.374L215.498 94.1226H215.571C215.684 93.854 215.828 93.6221 216.003 93.4268C216.179 93.2314 216.382 93.0801 216.611 92.9727C216.841 92.8652 217.092 92.8115 217.366 92.8115ZM222.375 92.958V101H221.255V92.958H222.375ZM221.833 89.9404C222.063 89.9404 222.229 90.0137 222.332 90.1602C222.439 90.3066 222.493 90.5093 222.493 90.7681C222.493 91.022 222.437 91.2222 222.324 91.3687C222.212 91.5151 222.048 91.5884 221.833 91.5884C221.624 91.5884 221.458 91.5151 221.335 91.3687C221.213 91.2222 221.152 91.022 221.152 90.7681C221.152 90.4995 221.211 90.2944 221.328 90.1528C221.445 90.0112 221.614 89.9404 221.833 89.9404ZM227.239 92.8115C227.874 92.8115 228.354 93.0337 228.682 93.478C229.009 93.9224 229.172 94.6035 229.172 95.5215V101H228.044V95.7485C228.044 95.0991 227.959 94.6133 227.788 94.291C227.622 93.9688 227.358 93.8076 226.997 93.8076C226.47 93.8076 226.084 94.042 225.84 94.5107C225.596 94.9795 225.474 95.7314 225.474 96.7666V101H224.346V92.958H225.247L225.371 94.1226H225.444C225.557 93.854 225.701 93.6221 225.876 93.4268C226.052 93.2314 226.255 93.0801 226.484 92.9727C226.714 92.8652 226.965 92.8115 227.239 92.8115ZM232.703 104.604C231.936 104.604 231.333 104.408 230.894 104.018C230.454 103.627 230.234 103.08 230.234 102.377C230.234 101.825 230.366 101.374 230.63 101.022C230.894 100.67 231.233 100.436 231.648 100.319C231.443 100.221 231.274 100.075 231.143 99.8794C231.016 99.6841 230.952 99.4521 230.952 99.1836C230.952 98.9102 231.016 98.6611 231.143 98.4365C231.274 98.2119 231.458 97.9971 231.692 97.792C231.379 97.6064 231.133 97.3086 230.952 96.8984C230.771 96.4883 230.681 96.0171 230.681 95.4849C230.681 94.938 230.769 94.4668 230.945 94.0713C231.125 93.6709 231.384 93.3608 231.721 93.1411C232.058 92.9214 232.461 92.8115 232.93 92.8115C233.076 92.8115 233.206 92.8188 233.318 92.8335C233.43 92.8481 233.53 92.8677 233.618 92.8921C233.706 92.9165 233.784 92.9458 233.853 92.98H235.845V93.7051L234.768 93.8369C234.905 94.0566 235.005 94.3081 235.068 94.5913C235.132 94.8696 235.164 95.1528 235.164 95.4409C235.164 96.2661 234.968 96.9155 234.578 97.3892C234.187 97.8579 233.635 98.0923 232.922 98.0923C232.703 98.0923 232.527 98.0703 232.395 98.0264C232.263 98.1484 232.146 98.2876 232.043 98.4438C231.946 98.6001 231.897 98.793 231.897 99.0225C231.897 99.1641 231.929 99.2886 231.992 99.396C232.061 99.5034 232.158 99.5864 232.285 99.645C232.412 99.7036 232.568 99.7329 232.754 99.7329H233.911C234.512 99.7329 234.973 99.9062 235.295 100.253C235.623 100.6 235.786 101.127 235.786 101.835C235.786 102.714 235.52 103.395 234.988 103.878C234.46 104.362 233.699 104.604 232.703 104.604ZM232.791 103.71C233.215 103.71 233.569 103.644 233.853 103.512C234.141 103.385 234.355 103.19 234.497 102.926C234.644 102.663 234.717 102.335 234.717 101.945C234.717 101.627 234.666 101.383 234.563 101.212C234.465 101.042 234.324 100.924 234.138 100.861C233.953 100.797 233.73 100.766 233.472 100.766H232.512C232.288 100.766 232.083 100.817 231.897 100.919C231.716 101.017 231.572 101.176 231.465 101.396C231.357 101.615 231.304 101.908 231.304 102.274C231.304 102.748 231.436 103.104 231.699 103.344C231.968 103.588 232.332 103.71 232.791 103.71ZM232.93 97.2573C233.281 97.2573 233.552 97.106 233.743 96.8032C233.938 96.5005 234.036 96.0562 234.036 95.4702C234.036 94.855 233.936 94.396 233.735 94.0933C233.54 93.7905 233.267 93.6392 232.915 93.6392C232.573 93.6392 232.305 93.8027 232.109 94.1299C231.914 94.4521 231.816 94.9062 231.816 95.4922C231.816 96.0537 231.909 96.4883 232.095 96.7959C232.28 97.1035 232.559 97.2573 232.93 97.2573Z" fill="white"/>
<path d="M486.707 97.7071C487.098 97.3166 487.098 96.6834 486.707 96.2929L480.343 89.9289C479.953 89.5384 479.319 89.5384 478.929 89.9289C478.538 90.3195 478.538 90.9526 478.929 91.3431L484.586 97L478.929 102.657C478.538 103.047 478.538 103.681 478.929 104.071C479.319 104.462 479.953 104.462 480.343 104.071L486.707 97.7071ZM436 98H486V96H436V98Z" fill="black"/>
<path d="M688.707 96.7071C689.098 96.3166 689.098 95.6834 688.707 95.2929L682.343 88.9289C681.953 88.5384 681.319 88.5384 680.929 88.9289C680.538 89.3195 680.538 89.9526 680.929 90.3431L686.586 96L680.929 101.657C680.538 102.047 680.538 102.681 680.929 103.071C681.319 103.462 681.953 103.462 682.343 103.071L688.707 96.7071ZM638 97H688V95H638V97Z" fill="black"/>
<path d="M319.707 97.7071C320.098 97.3166 320.098 96.6834 319.707 96.2929L313.343 89.9289C312.953 89.5384 312.319 89.5384 311.929 89.9289C311.538 90.3195 311.538 90.9526 311.929 91.3431L317.586 97L311.929 102.657C311.538 103.047 311.538 103.681 311.929 104.071C312.319 104.462 312.953 104.462 313.343 104.071L319.707 97.7071ZM269 98H319V96H269V98Z" fill="black"/>
<path d="M490 62C490 59.2386 492.239 57 495 57H639C641.761 57 644 59.2386 644 62V127C644 129.761 641.761 132 639 132H495C492.239 132 490 129.761 490 127V62Z" fill="#E5C494"/>
<path d="M542.522 86.5142C542.522 87.7202 542.383 88.731 542.105 89.5464C541.827 90.3569 541.412 90.9697 540.86 91.3848C540.313 91.7949 539.629 92 538.809 92H536.707V81.292H538.897C539.693 81.292 540.359 81.4897 540.896 81.8853C541.434 82.2808 541.839 82.8667 542.112 83.6431C542.386 84.4194 542.522 85.3765 542.522 86.5142ZM541.307 86.5728C541.307 85.6401 541.216 84.8589 541.036 84.229C540.855 83.5991 540.584 83.1255 540.223 82.8081C539.861 82.4907 539.405 82.332 538.853 82.332H537.872V90.9526H538.765C539.649 90.9526 540.293 90.5864 540.699 89.854C541.104 89.1167 541.307 88.0229 541.307 86.5728ZM546.47 83.8262C547.017 83.8262 547.466 83.9849 547.818 84.3022C548.174 84.6196 548.438 85.0469 548.609 85.584C548.785 86.1211 548.873 86.7192 548.873 87.3784V88.1768H545.042C545.052 89.1777 545.206 89.9297 545.503 90.4326C545.806 90.9355 546.26 91.187 546.866 91.187C547.154 91.187 547.437 91.1431 547.715 91.0552C547.994 90.9673 548.282 90.8257 548.58 90.6304V91.6411C548.301 91.812 548.011 91.939 547.708 92.022C547.405 92.105 547.083 92.1465 546.741 92.1465C546.072 92.1465 545.53 91.9683 545.115 91.6118C544.7 91.2505 544.397 90.7598 544.207 90.1396C544.021 89.5146 543.929 88.8091 543.929 88.0229C543.929 87.1245 544.024 86.3628 544.214 85.7378C544.405 85.1128 544.688 84.6392 545.064 84.3169C545.445 83.9897 545.914 83.8262 546.47 83.8262ZM546.47 84.749C546.045 84.749 545.713 84.9565 545.474 85.3716C545.235 85.7817 545.096 86.4165 545.057 87.2759H547.818C547.818 86.8218 547.769 86.4043 547.671 86.0234C547.579 85.6377 547.432 85.3301 547.232 85.1006C547.037 84.8662 546.783 84.749 546.47 84.749ZM553.377 83.8115C554.148 83.8115 554.732 84.1582 555.127 84.8516C555.528 85.54 555.728 86.5776 555.728 87.9644C555.728 88.8579 555.638 89.6172 555.457 90.2422C555.281 90.8623 555.022 91.3359 554.681 91.6631C554.339 91.9854 553.924 92.1465 553.436 92.1465C553.162 92.1465 552.908 92.0952 552.674 91.9927C552.439 91.8853 552.232 91.7363 552.051 91.5459C551.871 91.3506 551.719 91.1235 551.597 90.8647H551.546C551.556 91.0601 551.565 91.248 551.575 91.4287C551.59 91.6094 551.597 91.7803 551.597 91.9414V95.5889H550.469V83.958H551.385L551.524 85.1372H551.59C551.727 84.8394 551.883 84.5928 552.059 84.3975C552.239 84.2021 552.439 84.0557 552.659 83.958C552.879 83.8604 553.118 83.8115 553.377 83.8115ZM553.135 84.7856C552.793 84.7856 552.508 84.8931 552.278 85.1079C552.054 85.3228 551.883 85.6475 551.766 86.082C551.653 86.5117 551.597 87.0537 551.597 87.708V88.0962C551.597 88.7896 551.653 89.3633 551.766 89.8174C551.883 90.2715 552.056 90.6084 552.286 90.8281C552.52 91.0479 552.808 91.1577 553.15 91.1577C553.462 91.1577 553.724 91.0454 553.934 90.8208C554.148 90.5962 554.31 90.2495 554.417 89.7808C554.524 89.312 554.578 88.7114 554.578 87.979C554.578 86.9194 554.466 86.1235 554.241 85.5913C554.021 85.0542 553.653 84.7856 553.135 84.7856ZM558.467 92H557.339V80.6035H558.467V92ZM565.403 87.9717C565.403 88.6064 565.35 89.1802 565.242 89.6929C565.135 90.2056 564.971 90.645 564.751 91.0112C564.532 91.3774 564.253 91.6582 563.917 91.8535C563.58 92.0488 563.182 92.1465 562.723 92.1465C562.283 92.1465 561.897 92.0488 561.565 91.8535C561.233 91.6582 560.958 91.3799 560.738 91.0186C560.518 90.6523 560.352 90.2129 560.24 89.7002C560.127 89.1826 560.071 88.6064 560.071 87.9717C560.071 87.083 560.167 86.3311 560.357 85.7158C560.547 85.0957 560.84 84.6245 561.236 84.3022C561.631 83.9751 562.134 83.8115 562.745 83.8115C563.316 83.8115 563.799 83.9702 564.195 84.2876C564.59 84.6001 564.891 85.0664 565.096 85.6865C565.301 86.3018 565.403 87.0635 565.403 87.9717ZM561.221 87.9717C561.221 88.6699 561.275 89.2559 561.382 89.7295C561.49 90.2031 561.656 90.5596 561.88 90.7988C562.11 91.0381 562.4 91.1577 562.752 91.1577C563.099 91.1577 563.382 91.0405 563.602 90.8062C563.826 90.5718 563.992 90.2202 564.1 89.7515C564.207 89.2778 564.261 88.6846 564.261 87.9717C564.261 87.2734 564.207 86.6899 564.1 86.2212C563.992 85.7476 563.826 85.3936 563.602 85.1592C563.382 84.9199 563.096 84.8003 562.745 84.8003C562.208 84.8003 561.819 85.0664 561.58 85.5986C561.341 86.126 561.221 86.917 561.221 87.9717ZM566.128 83.958H567.293L568.428 88.6602C568.472 88.8652 568.514 89.0654 568.553 89.2607C568.597 89.4561 568.636 89.6514 568.67 89.8467C568.709 90.0371 568.741 90.23 568.765 90.4253H568.824C568.863 90.1421 568.912 89.8564 568.97 89.5684C569.029 89.2754 569.097 88.9702 569.175 88.6528L570.281 83.958H571.438L569.051 93.2891C568.909 93.8262 568.743 94.2656 568.553 94.6074C568.362 94.9492 568.138 95.2007 567.879 95.3618C567.625 95.5229 567.322 95.6035 566.971 95.6035C566.854 95.6035 566.736 95.5913 566.619 95.5669C566.502 95.5425 566.377 95.5132 566.246 95.479V94.4756C566.338 94.5098 566.434 94.5366 566.531 94.5562C566.634 94.5757 566.731 94.5854 566.824 94.5854C567.01 94.5854 567.168 94.5366 567.3 94.439C567.432 94.3462 567.549 94.1899 567.652 93.9702C567.754 93.7505 567.854 93.4502 567.952 93.0693L568.238 91.9414L566.128 83.958ZM578.799 83.8115C579.429 83.8115 579.896 84.041 580.198 84.5C580.506 84.9541 580.66 85.6475 580.66 86.5801V92H579.532V86.7778C579.532 86.0747 579.441 85.5718 579.261 85.269C579.085 84.9614 578.829 84.8076 578.492 84.8076C578.003 84.8076 577.654 85.0371 577.444 85.4961C577.234 85.9551 577.129 86.6191 577.129 87.4883V92H576.016V86.7632C576.016 86.2847 575.977 85.9038 575.899 85.6206C575.821 85.3325 575.704 85.125 575.547 84.998C575.396 84.8711 575.203 84.8076 574.969 84.8076C574.607 84.8076 574.329 84.9321 574.134 85.1812C573.938 85.4302 573.802 85.772 573.724 86.2065C573.65 86.6411 573.614 87.1367 573.614 87.6934V92H572.486V83.958H573.387L573.519 85.1006H573.584C573.687 84.8271 573.819 84.5952 573.98 84.4048C574.141 84.2144 574.332 84.0679 574.551 83.9653C574.776 83.8628 575.027 83.8115 575.306 83.8115C575.77 83.8115 576.133 83.9385 576.397 84.1924C576.666 84.4414 576.844 84.7563 576.932 85.1372H577.012C577.198 84.688 577.43 84.356 577.708 84.1411C577.986 83.9214 578.35 83.8115 578.799 83.8115ZM584.805 83.8262C585.352 83.8262 585.801 83.9849 586.153 84.3022C586.509 84.6196 586.773 85.0469 586.944 85.584C587.12 86.1211 587.208 86.7192 587.208 87.3784V88.1768H583.377C583.387 89.1777 583.541 89.9297 583.838 90.4326C584.141 90.9355 584.595 91.187 585.201 91.187C585.489 91.187 585.772 91.1431 586.05 91.0552C586.329 90.9673 586.617 90.8257 586.915 90.6304V91.6411C586.636 91.812 586.346 91.939 586.043 92.022C585.74 92.105 585.418 92.1465 585.076 92.1465C584.407 92.1465 583.865 91.9683 583.45 91.6118C583.035 91.2505 582.732 90.7598 582.542 90.1396C582.356 89.5146 582.264 88.8091 582.264 88.0229C582.264 87.1245 582.359 86.3628 582.549 85.7378C582.74 85.1128 583.023 84.6392 583.399 84.3169C583.78 83.9897 584.249 83.8262 584.805 83.8262ZM584.805 84.749C584.38 84.749 584.048 84.9565 583.809 85.3716C583.57 85.7817 583.431 86.4165 583.392 87.2759H586.153C586.153 86.8218 586.104 86.4043 586.006 86.0234C585.914 85.6377 585.767 85.3301 585.567 85.1006C585.372 84.8662 585.118 84.749 584.805 84.749ZM591.697 83.8115C592.332 83.8115 592.813 84.0337 593.14 84.478C593.467 84.9224 593.631 85.6035 593.631 86.5215V92H592.503V86.7485C592.503 86.0991 592.417 85.6133 592.247 85.291C592.081 84.9688 591.817 84.8076 591.456 84.8076C590.928 84.8076 590.542 85.042 590.298 85.5107C590.054 85.9795 589.932 86.7314 589.932 87.7666V92H588.804V83.958H589.705L589.83 85.1226H589.903C590.015 84.854 590.159 84.6221 590.335 84.4268C590.511 84.2314 590.713 84.0801 590.943 83.9727C591.172 83.8652 591.424 83.8115 591.697 83.8115ZM597.461 91.1504C597.583 91.1504 597.706 91.1382 597.828 91.1138C597.95 91.0845 598.067 91.0454 598.179 90.9966V91.9194C598.028 91.9878 597.864 92.0415 597.688 92.0806C597.513 92.1245 597.317 92.1465 597.103 92.1465C596.756 92.1465 596.47 92.0684 596.246 91.9121C596.026 91.7559 595.862 91.5239 595.755 91.2163C595.652 90.9038 595.601 90.5132 595.601 90.0444V84.9028H594.854V84.2876L595.652 83.9873L595.953 82.1343H596.729V83.958H598.091V84.9028H596.729V89.9126C596.729 90.3276 596.778 90.6377 596.875 90.8428C596.978 91.0479 597.173 91.1504 597.461 91.1504ZM520.616 107.847C520.616 107.002 520.699 106.185 520.865 105.394C521.031 104.598 521.272 103.846 521.59 103.138C521.912 102.43 522.3 101.785 522.754 101.204H523.75C523.096 102.176 522.601 103.226 522.264 104.354C521.927 105.477 521.758 106.636 521.758 107.833C521.758 108.624 521.834 109.405 521.985 110.176C522.142 110.943 522.366 111.68 522.659 112.388C522.957 113.101 523.316 113.763 523.736 114.373H522.754C522.291 113.807 521.9 113.179 521.583 112.491C521.265 111.802 521.023 111.067 520.857 110.286C520.696 109.5 520.616 108.687 520.616 107.847ZM527.186 112.146C526.419 112.146 525.835 111.795 525.435 111.092C525.04 110.384 524.842 109.354 524.842 108.001C524.842 106.658 525.042 105.625 525.442 104.903C525.843 104.175 526.412 103.812 527.149 103.812C527.408 103.812 527.652 103.863 527.881 103.965C528.111 104.063 528.316 104.205 528.497 104.39C528.682 104.571 528.838 104.791 528.965 105.049H529.017C529.007 104.825 528.997 104.625 528.987 104.449C528.982 104.268 528.98 104.1 528.98 103.943V100.604H530.101V112H529.2L529.046 110.916H528.98C528.843 111.17 528.687 111.39 528.511 111.575C528.34 111.761 528.145 111.902 527.925 112C527.71 112.098 527.464 112.146 527.186 112.146ZM527.435 111.187C527.942 111.187 528.326 110.95 528.584 110.477C528.848 110.003 528.98 109.302 528.98 108.375V107.825C528.98 106.805 528.853 106.048 528.599 105.555C528.35 105.062 527.957 104.815 527.42 104.815C526.932 104.815 526.57 105.088 526.336 105.635C526.106 106.177 525.992 106.966 525.992 108.001C525.992 109.046 526.106 109.839 526.336 110.381C526.57 110.918 526.937 111.187 527.435 111.187ZM533.191 103.958V112H532.071V103.958H533.191ZM532.649 100.94C532.879 100.94 533.045 101.014 533.147 101.16C533.255 101.307 533.309 101.509 533.309 101.768C533.309 102.022 533.252 102.222 533.14 102.369C533.028 102.515 532.864 102.588 532.649 102.588C532.439 102.588 532.273 102.515 532.151 102.369C532.029 102.222 531.968 102.022 531.968 101.768C531.968 101.5 532.027 101.294 532.144 101.153C532.261 101.011 532.43 100.94 532.649 100.94ZM538.736 109.876C538.736 110.359 538.648 110.772 538.472 111.114C538.296 111.451 538.04 111.707 537.703 111.883C537.371 112.059 536.966 112.146 536.487 112.146C536.116 112.146 535.777 112.103 535.469 112.015C535.162 111.927 534.9 111.822 534.686 111.7V110.528C534.9 110.704 535.167 110.85 535.484 110.967C535.801 111.08 536.124 111.136 536.451 111.136C536.827 111.136 537.115 111.028 537.315 110.813C537.52 110.599 537.623 110.298 537.623 109.913C537.623 109.683 537.581 109.485 537.498 109.319C537.415 109.148 537.281 108.987 537.095 108.836C536.915 108.68 536.675 108.516 536.377 108.345C536.045 108.14 535.75 107.928 535.491 107.708C535.237 107.488 535.04 107.237 534.898 106.954C534.756 106.666 534.686 106.316 534.686 105.906C534.686 105.281 534.888 104.776 535.293 104.39C535.704 104.004 536.243 103.812 536.912 103.812C537.249 103.812 537.566 103.855 537.864 103.943C538.167 104.026 538.453 104.153 538.721 104.324L538.296 105.232C538.091 105.091 537.872 104.979 537.637 104.896C537.408 104.812 537.171 104.771 536.927 104.771C536.57 104.771 536.287 104.871 536.077 105.071C535.872 105.271 535.77 105.54 535.77 105.877C535.77 106.102 535.811 106.294 535.894 106.456C535.977 106.617 536.114 106.773 536.304 106.924C536.495 107.076 536.746 107.247 537.059 107.437C537.391 107.647 537.681 107.862 537.93 108.082C538.184 108.296 538.382 108.545 538.523 108.829C538.665 109.112 538.736 109.461 538.736 109.876ZM542.09 111.15C542.212 111.15 542.334 111.138 542.457 111.114C542.579 111.084 542.696 111.045 542.808 110.997V111.919C542.657 111.988 542.493 112.042 542.317 112.081C542.142 112.125 541.946 112.146 541.731 112.146C541.385 112.146 541.099 112.068 540.875 111.912C540.655 111.756 540.491 111.524 540.384 111.216C540.281 110.904 540.23 110.513 540.23 110.044V104.903H539.483V104.288L540.281 103.987L540.582 102.134H541.358V103.958H542.72V104.903H541.358V109.913C541.358 110.328 541.407 110.638 541.504 110.843C541.607 111.048 541.802 111.15 542.09 111.15ZM546.697 103.819C546.81 103.819 546.922 103.829 547.034 103.848C547.146 103.863 547.264 103.89 547.386 103.929L547.21 105.086C547.122 105.047 547.029 105.02 546.932 105.005C546.834 104.991 546.729 104.983 546.617 104.983C546.397 104.983 546.194 105.057 546.009 105.203C545.828 105.345 545.672 105.545 545.54 105.804C545.408 106.062 545.306 106.363 545.232 106.705C545.164 107.046 545.132 107.415 545.137 107.811V112H544.009V103.958H544.888L545.042 105.386H545.115C545.228 105.079 545.359 104.808 545.511 104.573C545.662 104.339 545.835 104.156 546.031 104.024C546.231 103.887 546.453 103.819 546.697 103.819ZM549.642 103.958V112H548.521V103.958H549.642ZM549.1 100.94C549.329 100.94 549.495 101.014 549.598 101.16C549.705 101.307 549.759 101.509 549.759 101.768C549.759 102.022 549.703 102.222 549.59 102.369C549.478 102.515 549.314 102.588 549.1 102.588C548.89 102.588 548.724 102.515 548.602 102.369C548.479 102.222 548.418 102.022 548.418 101.768C548.418 101.5 548.477 101.294 548.594 101.153C548.711 101.011 548.88 100.94 549.1 100.94ZM552.74 100.604V103.958C552.74 104.114 552.735 104.29 552.725 104.485C552.72 104.676 552.713 104.878 552.703 105.093H552.754C552.955 104.673 553.204 104.358 553.501 104.148C553.804 103.934 554.148 103.826 554.534 103.826C555.301 103.826 555.882 104.178 556.277 104.881C556.678 105.579 556.878 106.607 556.878 107.964C556.878 108.863 556.788 109.625 556.607 110.25C556.431 110.87 556.17 111.341 555.823 111.663C555.481 111.985 555.062 112.146 554.563 112.146C554.168 112.146 553.821 112.049 553.523 111.854C553.226 111.653 552.969 111.346 552.754 110.931H552.688L552.527 112H551.612V100.604H552.74ZM554.292 104.815C553.882 104.815 553.565 104.947 553.34 105.21C553.116 105.469 552.959 105.826 552.872 106.28C552.784 106.734 552.74 107.251 552.74 107.833V108.177C552.74 109.192 552.869 109.947 553.128 110.44C553.392 110.928 553.782 111.172 554.3 111.172C554.778 111.172 555.135 110.911 555.369 110.389C555.604 109.866 555.721 109.053 555.721 107.95C555.721 106.915 555.606 106.133 555.376 105.606C555.152 105.079 554.791 104.815 554.292 104.815ZM563.279 103.958V112H562.378L562.254 110.857H562.173C562.066 111.121 561.924 111.351 561.749 111.546C561.578 111.736 561.38 111.885 561.155 111.993C560.931 112.095 560.679 112.146 560.401 112.146C559.932 112.146 559.554 112.029 559.266 111.795C558.982 111.561 558.775 111.226 558.643 110.792C558.516 110.357 558.453 109.839 558.453 109.239V103.958H559.581V109.026C559.581 109.749 559.664 110.281 559.83 110.623C560 110.965 560.259 111.136 560.606 111.136C560.982 111.136 561.282 111.033 561.507 110.828C561.731 110.618 561.895 110.303 561.998 109.883C562.1 109.458 562.151 108.921 562.151 108.272V103.958H563.279ZM567.139 111.15C567.261 111.15 567.383 111.138 567.505 111.114C567.627 111.084 567.745 111.045 567.857 110.997V111.919C567.706 111.988 567.542 112.042 567.366 112.081C567.19 112.125 566.995 112.146 566.78 112.146C566.434 112.146 566.148 112.068 565.923 111.912C565.704 111.756 565.54 111.524 565.433 111.216C565.33 110.904 565.279 110.513 565.279 110.044V104.903H564.532V104.288L565.33 103.987L565.63 102.134H566.407V103.958H567.769V104.903H566.407V109.913C566.407 110.328 566.456 110.638 566.553 110.843C566.656 111.048 566.851 111.15 567.139 111.15ZM570.193 103.958V112H569.073V103.958H570.193ZM569.651 100.94C569.881 100.94 570.047 101.014 570.149 101.16C570.257 101.307 570.311 101.509 570.311 101.768C570.311 102.022 570.254 102.222 570.142 102.369C570.03 102.515 569.866 102.588 569.651 102.588C569.441 102.588 569.275 102.515 569.153 102.369C569.031 102.222 568.97 102.022 568.97 101.768C568.97 101.5 569.029 101.294 569.146 101.153C569.263 101.011 569.432 100.94 569.651 100.94ZM577.151 107.972C577.151 108.606 577.098 109.18 576.99 109.693C576.883 110.206 576.719 110.645 576.5 111.011C576.28 111.377 576.001 111.658 575.665 111.854C575.328 112.049 574.93 112.146 574.471 112.146C574.031 112.146 573.646 112.049 573.313 111.854C572.981 111.658 572.706 111.38 572.486 111.019C572.266 110.652 572.1 110.213 571.988 109.7C571.875 109.183 571.819 108.606 571.819 107.972C571.819 107.083 571.915 106.331 572.105 105.716C572.295 105.096 572.588 104.625 572.984 104.302C573.379 103.975 573.882 103.812 574.493 103.812C575.064 103.812 575.547 103.97 575.943 104.288C576.338 104.6 576.639 105.066 576.844 105.687C577.049 106.302 577.151 107.063 577.151 107.972ZM572.969 107.972C572.969 108.67 573.023 109.256 573.13 109.729C573.238 110.203 573.404 110.56 573.628 110.799C573.858 111.038 574.148 111.158 574.5 111.158C574.847 111.158 575.13 111.041 575.35 110.806C575.574 110.572 575.74 110.22 575.848 109.751C575.955 109.278 576.009 108.685 576.009 107.972C576.009 107.273 575.955 106.69 575.848 106.221C575.74 105.748 575.574 105.394 575.35 105.159C575.13 104.92 574.844 104.8 574.493 104.8C573.956 104.8 573.567 105.066 573.328 105.599C573.089 106.126 572.969 106.917 572.969 107.972ZM581.663 103.812C582.298 103.812 582.779 104.034 583.106 104.478C583.433 104.922 583.597 105.604 583.597 106.521V112H582.469V106.749C582.469 106.099 582.383 105.613 582.212 105.291C582.046 104.969 581.783 104.808 581.421 104.808C580.894 104.808 580.508 105.042 580.264 105.511C580.02 105.979 579.898 106.731 579.898 107.767V112H578.77V103.958H579.671L579.795 105.123H579.869C579.981 104.854 580.125 104.622 580.301 104.427C580.477 104.231 580.679 104.08 580.909 103.973C581.138 103.865 581.39 103.812 581.663 103.812ZM591.895 109.876C591.895 110.359 591.807 110.772 591.631 111.114C591.456 111.451 591.199 111.707 590.862 111.883C590.53 112.059 590.125 112.146 589.646 112.146C589.275 112.146 588.936 112.103 588.628 112.015C588.321 111.927 588.06 111.822 587.845 111.7V110.528C588.06 110.704 588.326 110.85 588.643 110.967C588.96 111.08 589.283 111.136 589.61 111.136C589.986 111.136 590.274 111.028 590.474 110.813C590.679 110.599 590.782 110.298 590.782 109.913C590.782 109.683 590.74 109.485 590.657 109.319C590.574 109.148 590.44 108.987 590.254 108.836C590.074 108.68 589.834 108.516 589.537 108.345C589.205 108.14 588.909 107.928 588.65 107.708C588.396 107.488 588.199 107.237 588.057 106.954C587.916 106.666 587.845 106.316 587.845 105.906C587.845 105.281 588.047 104.776 588.453 104.39C588.863 104.004 589.402 103.812 590.071 103.812C590.408 103.812 590.726 103.855 591.023 103.943C591.326 104.026 591.612 104.153 591.88 104.324L591.456 105.232C591.25 105.091 591.031 104.979 590.796 104.896C590.567 104.812 590.33 104.771 590.086 104.771C589.729 104.771 589.446 104.871 589.236 105.071C589.031 105.271 588.929 105.54 588.929 105.877C588.929 106.102 588.97 106.294 589.053 106.456C589.136 106.617 589.273 106.773 589.463 106.924C589.654 107.076 589.905 107.247 590.218 107.437C590.55 107.647 590.84 107.862 591.089 108.082C591.343 108.296 591.541 108.545 591.683 108.829C591.824 109.112 591.895 109.461 591.895 109.876ZM594.488 100.604V103.914C594.488 104.129 594.48 104.336 594.466 104.537C594.456 104.732 594.437 104.917 594.407 105.093H594.488C594.585 104.83 594.72 104.603 594.891 104.412C595.066 104.222 595.269 104.075 595.499 103.973C595.728 103.865 595.975 103.812 596.238 103.812C596.688 103.812 597.056 103.917 597.344 104.126C597.632 104.332 597.845 104.637 597.981 105.042C598.118 105.442 598.187 105.94 598.187 106.536V112H597.059V106.756C597.059 106.062 596.976 105.567 596.81 105.269C596.644 104.971 596.375 104.822 596.004 104.822C595.662 104.822 595.379 104.927 595.154 105.137C594.93 105.347 594.761 105.672 594.649 106.111C594.542 106.546 594.488 107.105 594.488 107.789V112H593.36V100.604H594.488ZM601.263 103.958V112H600.142V103.958H601.263ZM600.721 100.94C600.95 100.94 601.116 101.014 601.219 101.16C601.326 101.307 601.38 101.509 601.38 101.768C601.38 102.022 601.324 102.222 601.211 102.369C601.099 102.515 600.936 102.588 600.721 102.588C600.511 102.588 600.345 102.515 600.223 102.369C600.101 102.222 600.04 102.022 600.04 101.768C600.04 101.5 600.098 101.294 600.215 101.153C600.333 101.011 600.501 100.94 600.721 100.94ZM605.76 104.91H604.493V112H603.372V104.91H602.383V104.302L603.372 103.921V103.379C603.372 102.769 603.423 102.251 603.526 101.827C603.633 101.402 603.816 101.08 604.075 100.86C604.339 100.635 604.7 100.523 605.159 100.523C605.374 100.523 605.572 100.542 605.752 100.582C605.938 100.621 606.128 100.679 606.324 100.757L606.031 101.666C605.894 101.617 605.765 101.58 605.643 101.556C605.525 101.526 605.408 101.512 605.291 101.512C604.988 101.512 604.781 101.646 604.668 101.915C604.561 102.178 604.502 102.657 604.493 103.35V103.958H605.76V104.91ZM608.858 111.15C608.98 111.15 609.102 111.138 609.224 111.114C609.346 111.084 609.463 111.045 609.576 110.997V111.919C609.424 111.988 609.261 112.042 609.085 112.081C608.909 112.125 608.714 112.146 608.499 112.146C608.152 112.146 607.867 112.068 607.642 111.912C607.422 111.756 607.259 111.524 607.151 111.216C607.049 110.904 606.998 110.513 606.998 110.044V104.903H606.25V104.288L607.049 103.987L607.349 102.134H608.125V103.958H609.488V104.903H608.125V109.913C608.125 110.328 608.174 110.638 608.272 110.843C608.375 111.048 608.57 111.15 608.858 111.15ZM613.377 107.84C613.377 108.665 613.294 109.471 613.128 110.257C612.967 111.043 612.728 111.785 612.41 112.483C612.093 113.182 611.705 113.812 611.246 114.373H610.257C610.682 113.758 611.041 113.091 611.333 112.374C611.631 111.661 611.856 110.918 612.007 110.147C612.164 109.375 612.242 108.602 612.242 107.825C612.242 107.015 612.164 106.226 612.007 105.459C611.856 104.688 611.631 103.946 611.333 103.233C611.041 102.52 610.679 101.844 610.25 101.204H611.246C611.705 101.78 612.09 102.425 612.403 103.138C612.72 103.851 612.962 104.605 613.128 105.401C613.294 106.197 613.377 107.01 613.377 107.84Z" fill="white"/>
<rect x="137.5" y="32.5" width="522" height="119" stroke="black" stroke-dasharray="2 2"/>
<path d="M189.224 18.7373H190.881C191.224 18.7373 191.404 18.7373 191.404 18.413C191.404 18.2149 191.296 18.2149 190.935 18.2149H189.35L190.017 15.5851C190.089 15.3329 190.089 15.2969 190.089 15.1708C190.089 14.8826 189.855 14.7205 189.621 14.7205C189.476 14.7205 189.062 14.7745 188.918 15.3509L188.216 18.2149H186.522C186.162 18.2149 186 18.2149 186 18.5571C186 18.7373 186.126 18.7373 186.468 18.7373H188.071L186.883 23.4926C186.739 24.123 186.684 24.3031 186.684 24.5373C186.684 25.3839 187.279 26.1584 188.288 26.1584C190.107 26.1584 191.08 23.5286 191.08 23.4025C191.08 23.2944 191.007 23.2404 190.899 23.2404C190.863 23.2404 190.791 23.2404 190.755 23.3124C190.737 23.3304 190.719 23.3485 190.593 23.6367C190.215 24.5373 189.386 25.7981 188.342 25.7981C187.801 25.7981 187.765 25.3478 187.765 24.9516C187.765 24.9335 187.765 24.5913 187.819 24.3752L189.224 18.7373Z" fill="black"/>
<path d="M203.162 21.8174H208.134C208.386 21.8174 208.71 21.8174 208.71 21.4932C208.71 21.1509 208.404 21.1509 208.134 21.1509H203.162V16.1795C203.162 15.9273 203.162 15.6031 202.838 15.6031C202.496 15.6031 202.496 15.9093 202.496 16.1795V21.1509H197.524C197.272 21.1509 196.948 21.1509 196.948 21.4751C196.948 21.8174 197.254 21.8174 197.524 21.8174H202.496V26.7888C202.496 27.041 202.496 27.3652 202.82 27.3652C203.162 27.3652 203.162 27.059 203.162 26.7888V21.8174Z" fill="black"/>
<path d="M218.883 14.4323C218.883 14.018 218.883 14 218.523 14C218.091 14.4863 217.19 15.1528 215.335 15.1528V15.6752C215.749 15.6752 216.65 15.6752 217.64 15.2068V24.5913C217.64 25.2398 217.586 25.4559 216.001 25.4559H215.443V25.9783C215.929 25.9423 217.676 25.9423 218.271 25.9423C218.865 25.9423 220.594 25.9423 221.081 25.9783V25.4559H220.522C218.937 25.4559 218.883 25.2398 218.883 24.5913V14.4323Z" fill="black"/>
<path d="M137.443 26V15.292H138.607V26H137.443ZM142.562 25.1504C142.685 25.1504 142.807 25.1382 142.929 25.1138C143.051 25.0845 143.168 25.0454 143.28 24.9966V25.9194C143.129 25.9878 142.965 26.0415 142.79 26.0806C142.614 26.1245 142.418 26.1465 142.204 26.1465C141.857 26.1465 141.571 26.0684 141.347 25.9121C141.127 25.7559 140.963 25.5239 140.856 25.2163C140.753 24.9038 140.702 24.5132 140.702 24.0444V18.9028H139.955V18.2876L140.753 17.9873L141.054 16.1343H141.83V17.958H143.192V18.9028H141.83V23.9126C141.83 24.3276 141.879 24.6377 141.977 24.8428C142.079 25.0479 142.274 25.1504 142.562 25.1504ZM146.693 17.8262C147.24 17.8262 147.689 17.9849 148.041 18.3022C148.397 18.6196 148.661 19.0469 148.832 19.584C149.008 20.1211 149.096 20.7192 149.096 21.3784V22.1768H145.265C145.275 23.1777 145.429 23.9297 145.727 24.4326C146.029 24.9355 146.483 25.187 147.089 25.187C147.377 25.187 147.66 25.1431 147.938 25.0552C148.217 24.9673 148.505 24.8257 148.803 24.6304V25.6411C148.524 25.812 148.234 25.939 147.931 26.022C147.628 26.105 147.306 26.1465 146.964 26.1465C146.295 26.1465 145.753 25.9683 145.338 25.6118C144.923 25.2505 144.621 24.7598 144.43 24.1396C144.245 23.5146 144.152 22.8091 144.152 22.0229C144.152 21.1245 144.247 20.3628 144.438 19.7378C144.628 19.1128 144.911 18.6392 145.287 18.3169C145.668 17.9897 146.137 17.8262 146.693 17.8262ZM146.693 18.749C146.269 18.749 145.937 18.9565 145.697 19.3716C145.458 19.7817 145.319 20.4165 145.28 21.2759H148.041C148.041 20.8218 147.992 20.4043 147.895 20.0234C147.802 19.6377 147.655 19.3301 147.455 19.1006C147.26 18.8662 147.006 18.749 146.693 18.749ZM153.38 17.8188C153.493 17.8188 153.605 17.8286 153.717 17.8481C153.83 17.8628 153.947 17.8896 154.069 17.9287L153.893 19.0859C153.805 19.0469 153.712 19.02 153.615 19.0054C153.517 18.9907 153.412 18.9834 153.3 18.9834C153.08 18.9834 152.877 19.0566 152.692 19.2031C152.511 19.3447 152.355 19.5449 152.223 19.8037C152.091 20.0625 151.989 20.3628 151.916 20.7046C151.847 21.0464 151.815 21.415 151.82 21.8105V26H150.692V17.958H151.571L151.725 19.3862H151.798C151.911 19.0786 152.042 18.8076 152.194 18.5732C152.345 18.3389 152.519 18.1558 152.714 18.0239C152.914 17.8872 153.136 17.8188 153.38 17.8188ZM157.343 17.8115C158.085 17.8115 158.615 18.0483 158.932 18.522C159.25 18.9956 159.408 19.6816 159.408 20.5801V26H158.551L158.383 24.8574H158.354C158.227 25.1309 158.075 25.3652 157.899 25.5605C157.724 25.751 157.523 25.8975 157.299 26C157.074 26.0977 156.815 26.1465 156.522 26.1465C156.107 26.1465 155.768 26.0366 155.504 25.8169C155.241 25.5972 155.045 25.3091 154.918 24.9526C154.792 24.5913 154.728 24.2031 154.728 23.7881C154.728 22.9922 154.958 22.3745 155.417 21.9351C155.875 21.4956 156.527 21.2563 157.372 21.2173L158.288 21.1587V20.6094C158.288 19.9648 158.2 19.4937 158.024 19.1958C157.848 18.8979 157.565 18.749 157.174 18.749C156.95 18.749 156.713 18.7881 156.464 18.8662C156.22 18.9443 155.954 19.0688 155.666 19.2397L155.307 18.3901C155.609 18.1948 155.932 18.0508 156.273 17.958C156.62 17.8604 156.977 17.8115 157.343 17.8115ZM158.302 21.9863L157.555 22.0376C156.989 22.0718 156.566 22.2329 156.288 22.521C156.015 22.8042 155.878 23.2168 155.878 23.7588C155.878 24.2617 155.968 24.6328 156.149 24.8721C156.33 25.1113 156.579 25.231 156.896 25.231C157.34 25.231 157.685 25.0161 157.929 24.5864C158.178 24.1567 158.302 23.5635 158.302 22.8066V21.9863ZM163.246 25.1504C163.368 25.1504 163.49 25.1382 163.612 25.1138C163.734 25.0845 163.852 25.0454 163.964 24.9966V25.9194C163.812 25.9878 163.649 26.0415 163.473 26.0806C163.297 26.1245 163.102 26.1465 162.887 26.1465C162.541 26.1465 162.255 26.0684 162.03 25.9121C161.811 25.7559 161.647 25.5239 161.54 25.2163C161.437 24.9038 161.386 24.5132 161.386 24.0444V18.9028H160.639V18.2876L161.437 17.9873L161.737 16.1343H162.514V17.958H163.876V18.9028H162.514V23.9126C162.514 24.3276 162.562 24.6377 162.66 24.8428C162.763 25.0479 162.958 25.1504 163.246 25.1504ZM166.3 17.958V26H165.18V17.958H166.3ZM165.758 14.9404C165.988 14.9404 166.154 15.0137 166.256 15.1602C166.364 15.3066 166.417 15.5093 166.417 15.7681C166.417 16.022 166.361 16.2222 166.249 16.3687C166.137 16.5151 165.973 16.5884 165.758 16.5884C165.548 16.5884 165.382 16.5151 165.26 16.3687C165.138 16.2222 165.077 16.022 165.077 15.7681C165.077 15.4995 165.136 15.2944 165.253 15.1528C165.37 15.0112 165.539 14.9404 165.758 14.9404ZM173.258 21.9717C173.258 22.6064 173.205 23.1802 173.097 23.6929C172.99 24.2056 172.826 24.645 172.606 25.0112C172.387 25.3774 172.108 25.6582 171.771 25.8535C171.435 26.0488 171.037 26.1465 170.578 26.1465C170.138 26.1465 169.752 26.0488 169.42 25.8535C169.088 25.6582 168.812 25.3799 168.593 25.0186C168.373 24.6523 168.207 24.2129 168.095 23.7002C167.982 23.1826 167.926 22.6064 167.926 21.9717C167.926 21.083 168.021 20.3311 168.212 19.7158C168.402 19.0957 168.695 18.6245 169.091 18.3022C169.486 17.9751 169.989 17.8115 170.6 17.8115C171.171 17.8115 171.654 17.9702 172.05 18.2876C172.445 18.6001 172.746 19.0664 172.951 19.6865C173.156 20.3018 173.258 21.0635 173.258 21.9717ZM169.076 21.9717C169.076 22.6699 169.13 23.2559 169.237 23.7295C169.345 24.2031 169.511 24.5596 169.735 24.7988C169.965 25.0381 170.255 25.1577 170.607 25.1577C170.954 25.1577 171.237 25.0405 171.457 24.8062C171.681 24.5718 171.847 24.2202 171.955 23.7515C172.062 23.2778 172.116 22.6846 172.116 21.9717C172.116 21.2734 172.062 20.6899 171.955 20.2212C171.847 19.7476 171.681 19.3936 171.457 19.1592C171.237 18.9199 170.951 18.8003 170.6 18.8003C170.062 18.8003 169.674 19.0664 169.435 19.5986C169.196 20.126 169.076 20.917 169.076 21.9717ZM177.77 17.8115C178.405 17.8115 178.886 18.0337 179.213 18.478C179.54 18.9224 179.704 19.6035 179.704 20.5215V26H178.576V20.7485C178.576 20.0991 178.49 19.6133 178.319 19.291C178.153 18.9688 177.89 18.8076 177.528 18.8076C177.001 18.8076 176.615 19.042 176.371 19.5107C176.127 19.9795 176.005 20.7314 176.005 21.7666V26H174.877V17.958H175.778L175.902 19.1226H175.976C176.088 18.854 176.232 18.6221 176.408 18.4268C176.583 18.2314 176.786 18.0801 177.016 17.9727C177.245 17.8652 177.497 17.8115 177.77 17.8115Z" fill="black"/>
<path d="M13.0888 107.82C13.0888 107.766 13.0888 107.73 12.7826 107.424C10.9814 105.605 9.97267 102.633 9.97267 98.9583C9.97267 95.4639 10.8193 92.4558 12.9087 90.3304C13.0888 90.1682 13.0888 90.1322 13.0888 90.0782C13.0888 89.9701 12.9988 89.9341 12.9267 89.9341C12.6926 89.9341 11.2155 91.231 10.3329 92.9962C9.41429 94.8155 9 96.7428 9 98.9583C9 100.561 9.25218 102.705 10.1888 104.632C11.2516 106.794 12.7286 107.965 12.9267 107.965C12.9988 107.965 13.0888 107.929 13.0888 107.82Z" fill="#8DA0CB"/>
<path d="M22.0731 94.3831C22.0731 92.5459 21.4967 90.7626 20.0197 90.7626C17.4979 90.7626 14.8141 96.0403 14.8141 100.003C14.8141 100.832 14.9942 103.624 16.8855 103.624C19.3352 103.624 22.0731 98.472 22.0731 94.3831ZM16.6153 96.9229C16.8855 95.8602 17.2638 94.3471 17.9843 93.0682C18.5787 91.9875 19.2091 91.1229 20.0017 91.1229C20.5961 91.1229 20.9924 91.6272 20.9924 93.3564C20.9924 94.0049 20.9383 94.9055 20.416 96.9229H16.6153ZM20.2899 97.4633C19.8396 99.2285 19.4613 100.363 18.8129 101.498C18.2905 102.417 17.6601 103.263 16.9035 103.263C16.3451 103.263 15.8948 102.831 15.8948 101.048C15.8948 99.8769 16.183 98.6521 16.4712 97.4633H20.2899Z" fill="#8DA0CB"/>
<path d="M26.8015 99.0083C26.8975 99.0083 27.0416 99.0083 27.0416 98.8642C27.0416 98.8162 27.0296 98.8042 26.8735 98.6481C25.2284 97.099 24.8201 94.8654 24.8201 93.0042C24.8201 89.5458 26.2491 87.9246 26.8615 87.3723C27.0296 87.2161 27.0416 87.2041 27.0416 87.1441C27.0416 87.0841 26.9936 87 26.8735 87C26.6814 87 26.081 87.6124 25.9849 87.7205C24.3758 89.4017 24.0396 91.5632 24.0396 93.0042C24.0396 95.694 25.1683 97.8555 26.8015 99.0083Z" fill="#8DA0CB"/>
<path d="M30.4183 91.2269H31.5951C31.8233 91.2269 31.9674 91.2269 31.9674 90.9988C31.9674 90.8306 31.8113 90.8306 31.6071 90.8306H30.5144L30.9467 89.1255C30.9947 88.9453 30.9947 88.8853 30.9947 88.8733C30.9947 88.6211 30.8026 88.501 30.5984 88.501C30.1902 88.501 30.1061 88.8253 29.974 89.3656L29.6018 90.8306H28.449C28.2208 90.8306 28.0647 90.8306 28.0647 91.0588C28.0647 91.2269 28.2208 91.2269 28.4249 91.2269H29.5057L28.7852 94.1089C28.7131 94.4091 28.6051 94.8294 28.6051 94.9975C28.6051 95.718 29.1935 96.1263 29.8299 96.1263C31.1148 96.1263 31.8473 94.4331 31.8473 94.289C31.8473 94.1569 31.7392 94.1329 31.6672 94.1329C31.5351 94.1329 31.5231 94.181 31.439 94.3611C31.1989 94.9375 30.5984 95.7901 29.8659 95.7901C29.6138 95.7901 29.4697 95.622 29.4697 95.2257C29.4697 94.9975 29.5057 94.8654 29.5417 94.7093L30.4183 91.2269Z" fill="#8DA0CB"/>
<path d="M36.0825 93.0042C36.0825 91.8634 35.8903 90.4944 35.1458 89.0774C34.5574 87.9727 33.4647 87 33.2485 87C33.1284 87 33.0924 87.0841 33.0924 87.1441C33.0924 87.1921 33.0924 87.2161 33.2365 87.3602C34.9177 88.9574 35.3019 91.1549 35.3019 93.0042C35.3019 96.4505 33.8729 98.0837 33.2605 98.636C33.1044 98.7922 33.0924 98.8042 33.0924 98.8642C33.0924 98.9242 33.1284 99.0083 33.2485 99.0083C33.4406 99.0083 34.0411 98.3959 34.1371 98.2878C35.7462 96.6066 36.0825 94.4451 36.0825 93.0042Z" fill="#8DA0CB"/>
<path d="M41.5967 103.515C41.5967 102.471 41.2545 101.696 40.516 101.696C39.9396 101.696 39.6514 102.165 39.6514 102.561C39.6514 102.957 39.9216 103.443 40.534 103.443C40.7681 103.443 40.9663 103.371 41.1284 103.209C41.1644 103.173 41.1824 103.173 41.2004 103.173C41.2365 103.173 41.2365 103.425 41.2365 103.515C41.2365 104.11 41.1284 105.281 40.0837 106.452C39.8855 106.668 39.8855 106.704 39.8855 106.74C39.8855 106.83 39.9756 106.92 40.0657 106.92C40.2098 106.92 41.5967 105.587 41.5967 103.515Z" fill="#8DA0CB"/>
<path d="M49.66 103.443C53.8569 103.443 59.783 100.237 59.783 95.3198C59.783 93.7167 59.0265 92.708 58.1439 92.1496C56.5948 91.1409 54.9377 91.1409 53.2265 91.1409C51.6774 91.1409 50.6147 91.1409 49.1017 91.7894C46.706 92.8521 46.3638 94.3471 46.3638 94.4912C46.3638 94.5993 46.4358 94.6353 46.5439 94.6353C46.8321 94.6353 47.2464 94.3832 47.3905 94.2931C47.7687 94.0409 47.8228 93.9329 47.9309 93.5906C48.183 92.8701 48.6874 92.2397 50.9569 92.1316C50.6687 95.8962 49.7501 99.3366 48.4892 102.489C47.8228 102.723 47.3905 103.137 47.3905 103.317C47.3905 103.425 47.4085 103.443 47.8048 103.443H49.66ZM49.7501 102.453C51.8035 97.4273 52.1818 94.2931 52.434 92.1316C53.6408 92.1316 58.252 92.1316 58.252 96.0944C58.252 99.6248 55.0818 102.453 50.7228 102.453H49.7501Z" fill="#8DA0CB"/>
<path d="M66.2346 107.82C66.2346 107.766 66.2346 107.73 65.9284 107.424C64.1271 105.605 63.1184 102.633 63.1184 98.9583C63.1184 95.4639 63.965 92.4558 66.0545 90.3304C66.2346 90.1682 66.2346 90.1322 66.2346 90.0782C66.2346 89.9701 66.1445 89.9341 66.0725 89.9341C65.8383 89.9341 64.3613 91.231 63.4787 92.9962C62.56 94.8155 62.1458 96.7428 62.1458 98.9583C62.1458 100.561 62.3979 102.705 63.3346 104.632C64.3973 106.794 65.8743 107.965 66.0725 107.965C66.1445 107.965 66.2346 107.929 66.2346 107.82Z" fill="#8DA0CB"/>
<path d="M75.2189 94.3831C75.2189 92.5459 74.6425 90.7626 73.1654 90.7626C70.6437 90.7626 67.9598 96.0403 67.9598 100.003C67.9598 100.832 68.14 103.624 70.0313 103.624C72.481 103.624 75.2189 98.472 75.2189 94.3831ZM69.7611 96.9229C70.0313 95.8602 70.4095 94.3471 71.13 93.0682C71.7244 91.9875 72.3549 91.1229 73.1474 91.1229C73.7418 91.1229 74.1381 91.6272 74.1381 93.3564C74.1381 94.0049 74.0841 94.9055 73.5617 96.9229H69.7611ZM73.4356 97.4633C72.9853 99.2285 72.6071 100.363 71.9586 101.498C71.4362 102.417 70.8058 103.263 70.0493 103.263C69.4909 103.263 69.0406 102.831 69.0406 101.048C69.0406 99.8769 69.3288 98.6521 69.617 97.4633H73.4356Z" fill="#8DA0CB"/>
<path d="M79.9472 99.0083C80.0433 99.0083 80.1874 99.0083 80.1874 98.8642C80.1874 98.8162 80.1754 98.8042 80.0193 98.6481C78.3741 97.099 77.9658 94.8654 77.9658 93.0042C77.9658 89.5458 79.3948 87.9246 80.0073 87.3723C80.1754 87.2161 80.1874 87.2041 80.1874 87.1441C80.1874 87.0841 80.1393 87 80.0193 87C79.8271 87 79.2267 87.6124 79.1306 87.7205C77.5215 89.4017 77.1853 91.5632 77.1853 93.0042C77.1853 95.694 78.3141 97.8555 79.9472 99.0083Z" fill="#8DA0CB"/>
<path d="M83.5641 91.2269H84.7409C84.969 91.2269 85.1131 91.2269 85.1131 90.9988C85.1131 90.8306 84.957 90.8306 84.7529 90.8306H83.6601L84.0924 89.1255C84.1405 88.9453 84.1405 88.8853 84.1405 88.8733C84.1405 88.6211 83.9483 88.501 83.7442 88.501C83.3359 88.501 83.2519 88.8253 83.1198 89.3656L82.7475 90.8306H81.5947C81.3666 90.8306 81.2104 90.8306 81.2104 91.0588C81.2104 91.2269 81.3666 91.2269 81.5707 91.2269H82.6514L81.9309 94.1089C81.8589 94.4091 81.7508 94.8294 81.7508 94.9975C81.7508 95.718 82.3392 96.1263 82.9757 96.1263C84.2606 96.1263 84.9931 94.4331 84.9931 94.289C84.9931 94.1569 84.885 94.1329 84.8129 94.1329C84.6808 94.1329 84.6688 94.181 84.5848 94.3611C84.3446 94.9375 83.7442 95.7901 83.0117 95.7901C82.7595 95.7901 82.6154 95.622 82.6154 95.2257C82.6154 94.9975 82.6514 94.8654 82.6875 94.7093L83.5641 91.2269Z" fill="#8DA0CB"/>
<path d="M89.2282 93.0042C89.2282 91.8634 89.0361 90.4944 88.2916 89.0774C87.7032 87.9727 86.6104 87 86.3943 87C86.2742 87 86.2382 87.0841 86.2382 87.1441C86.2382 87.1921 86.2382 87.2161 86.3823 87.3602C88.0634 88.9574 88.4477 91.1549 88.4477 93.0042C88.4477 96.4505 87.0187 98.0837 86.4063 98.636C86.2502 98.7922 86.2382 98.8042 86.2382 98.8642C86.2382 98.9242 86.2742 99.0083 86.3943 99.0083C86.5864 99.0083 87.1868 98.3959 87.2829 98.2878C88.892 96.6066 89.2282 94.4451 89.2282 93.0042Z" fill="#8DA0CB"/>
<path d="M96.3095 98.9583C96.3095 97.5894 96.1294 95.3558 95.1207 93.2664C94.058 91.1049 92.581 89.9341 92.3828 89.9341C92.3108 89.9341 92.2207 89.9701 92.2207 90.0782C92.2207 90.1322 92.2207 90.1682 92.5269 90.4745C94.3282 92.2937 95.3369 95.2658 95.3369 98.9403C95.3369 102.435 94.4903 105.443 92.4008 107.568C92.2207 107.73 92.2207 107.766 92.2207 107.82C92.2207 107.929 92.3108 107.965 92.3828 107.965C92.617 107.965 94.094 106.668 94.9766 104.902C95.8952 103.065 96.3095 101.12 96.3095 98.9583Z" fill="#8DA0CB"/>
<path d="M103.168 98.9583C103.168 97.5894 102.988 95.3558 101.98 93.2664C100.917 91.1049 99.4398 89.9341 99.2417 89.9341C99.1697 89.9341 99.0796 89.9701 99.0796 90.0782C99.0796 90.1322 99.0796 90.1682 99.3858 90.4745C101.187 92.2937 102.196 95.2658 102.196 98.9403C102.196 102.435 101.349 105.443 99.2597 107.568C99.0796 107.73 99.0796 107.766 99.0796 107.82C99.0796 107.929 99.1697 107.965 99.2417 107.965C99.4759 107.965 100.953 106.668 101.835 104.902C102.754 103.065 103.168 101.12 103.168 98.9583Z" fill="#8DA0CB"/>
<path d="M326.089 107.82C326.089 107.766 326.089 107.73 325.783 107.424C323.981 105.605 322.973 102.633 322.973 98.9583C322.973 95.4639 323.819 92.4558 325.909 90.3304C326.089 90.1682 326.089 90.1322 326.089 90.0782C326.089 89.9701 325.999 89.9341 325.927 89.9341C325.693 89.9341 324.216 91.231 323.333 92.9962C322.414 94.8155 322 96.7428 322 98.9583C322 100.561 322.252 102.705 323.189 104.632C324.252 106.794 325.729 107.965 325.927 107.965C325.999 107.965 326.089 107.929 326.089 107.82Z" fill="#E5C494"/>
<path d="M335.073 94.3831C335.073 92.5459 334.497 90.7626 333.02 90.7626C330.498 90.7626 327.814 96.0403 327.814 100.003C327.814 100.832 327.994 103.624 329.886 103.624C332.335 103.624 335.073 98.472 335.073 94.3831ZM329.615 96.9229C329.886 95.8602 330.264 94.3471 330.984 93.0682C331.579 91.9875 332.209 91.1229 333.002 91.1229C333.596 91.1229 333.992 91.6272 333.992 93.3564C333.992 94.0049 333.938 94.9055 333.416 96.9229H329.615ZM333.29 97.4633C332.84 99.2285 332.461 100.363 331.813 101.498C331.29 102.417 330.66 103.263 329.904 103.263C329.345 103.263 328.895 102.831 328.895 101.048C328.895 99.8769 329.183 98.6521 329.471 97.4633H333.29Z" fill="#E5C494"/>
<path d="M339.801 99.0083C339.898 99.0083 340.042 99.0083 340.042 98.8642C340.042 98.8162 340.03 98.8042 339.874 98.6481C338.228 97.099 337.82 94.8654 337.82 93.0042C337.82 89.5458 339.249 87.9246 339.862 87.3723C340.03 87.2161 340.042 87.2041 340.042 87.1441C340.042 87.0841 339.994 87 339.874 87C339.681 87 339.081 87.6124 338.985 87.7205C337.376 89.4017 337.04 91.5632 337.04 93.0042C337.04 95.694 338.168 97.8555 339.801 99.0083Z" fill="#E5C494"/>
<path d="M343.418 91.2269H344.595C344.823 91.2269 344.967 91.2269 344.967 90.9988C344.967 90.8306 344.811 90.8306 344.607 90.8306H343.514L343.947 89.1255C343.995 88.9453 343.995 88.8853 343.995 88.8733C343.995 88.6211 343.803 88.501 343.598 88.501C343.19 88.501 343.106 88.8253 342.974 89.3656L342.602 90.8306H341.449C341.221 90.8306 341.065 90.8306 341.065 91.0588C341.065 91.2269 341.221 91.2269 341.425 91.2269H342.506L341.785 94.1089C341.713 94.4091 341.605 94.8294 341.605 94.9975C341.605 95.718 342.193 96.1263 342.83 96.1263C344.115 96.1263 344.847 94.4331 344.847 94.289C344.847 94.1569 344.739 94.1329 344.667 94.1329C344.535 94.1329 344.523 94.181 344.439 94.3611C344.199 94.9375 343.598 95.7901 342.866 95.7901C342.614 95.7901 342.47 95.622 342.47 95.2257C342.47 94.9975 342.506 94.8654 342.542 94.7093L343.418 91.2269Z" fill="#E5C494"/>
<path d="M350.607 93.2803H354.138C354.306 93.2803 354.57 93.2803 354.57 93.0041C354.57 92.728 354.306 92.728 354.138 92.728H350.607V89.1855C350.607 89.0174 350.607 88.7532 350.331 88.7532C350.055 88.7532 350.055 89.0174 350.055 89.1855V92.728H346.513C346.345 92.728 346.08 92.728 346.08 93.0041C346.08 93.2803 346.345 93.2803 346.513 93.2803H350.055V96.8228C350.055 96.9909 350.055 97.2551 350.331 97.2551C350.607 97.2551 350.607 96.9909 350.607 96.8228V93.2803Z" fill="#E5C494"/>
<path d="M359.066 88.3569C359.066 88.0327 359.042 88.0207 358.718 88.0207C358.226 88.501 357.589 88.7892 356.448 88.7892V89.1855C356.773 89.1855 357.421 89.1855 358.118 88.8613V95.0215C358.118 95.4658 358.081 95.6099 356.941 95.6099H356.52V96.0062C357.013 95.9702 358.045 95.9702 358.586 95.9702C359.126 95.9702 360.171 95.9702 360.663 96.0062V95.6099H360.243C359.102 95.6099 359.066 95.4658 359.066 95.0215V88.3569Z" fill="#E5C494"/>
<path d="M365.386 93.0042C365.386 91.8634 365.193 90.4944 364.449 89.0774C363.861 87.9727 362.768 87 362.552 87C362.432 87 362.396 87.0841 362.396 87.1441C362.396 87.1921 362.396 87.2161 362.54 87.3602C364.221 88.9574 364.605 91.1549 364.605 93.0042C364.605 96.4505 363.176 98.0837 362.564 98.636C362.408 98.7922 362.396 98.8042 362.396 98.8642C362.396 98.9242 362.432 99.0083 362.552 99.0083C362.744 99.0083 363.344 98.3959 363.44 98.2878C365.049 96.6066 365.386 94.4451 365.386 93.0042Z" fill="#E5C494"/>
<path d="M370.9 103.515C370.9 102.471 370.558 101.696 369.819 101.696C369.243 101.696 368.955 102.165 368.955 102.561C368.955 102.957 369.225 103.443 369.837 103.443C370.071 103.443 370.269 103.371 370.432 103.209C370.468 103.173 370.486 103.173 370.504 103.173C370.54 103.173 370.54 103.425 370.54 103.515C370.54 104.11 370.432 105.281 369.387 106.452C369.189 106.668 369.189 106.704 369.189 106.74C369.189 106.83 369.279 106.92 369.369 106.92C369.513 106.92 370.9 105.587 370.9 103.515Z" fill="#E5C494"/>
<path d="M378.963 103.443C383.16 103.443 389.086 100.237 389.086 95.3198C389.086 93.7167 388.33 92.708 387.447 92.1496C385.898 91.1409 384.241 91.1409 382.53 91.1409C380.981 91.1409 379.918 91.1409 378.405 91.7894C376.009 92.8521 375.667 94.3471 375.667 94.4912C375.667 94.5993 375.739 94.6353 375.847 94.6353C376.135 94.6353 376.549 94.3832 376.694 94.2931C377.072 94.0409 377.126 93.9329 377.234 93.5906C377.486 92.8701 377.99 92.2397 380.26 92.1316C379.972 95.8962 379.053 99.3366 377.792 102.489C377.126 102.723 376.694 103.137 376.694 103.317C376.694 103.425 376.712 103.443 377.108 103.443H378.963ZM379.053 102.453C381.107 97.4273 381.485 94.2931 381.737 92.1316C382.944 92.1316 387.555 92.1316 387.555 96.0944C387.555 99.6248 384.385 102.453 380.026 102.453H379.053Z" fill="#E5C494"/>
<path d="M395.538 107.82C395.538 107.766 395.538 107.73 395.232 107.424C393.43 105.605 392.422 102.633 392.422 98.9583C392.422 95.4639 393.268 92.4558 395.358 90.3304C395.538 90.1682 395.538 90.1322 395.538 90.0782C395.538 89.9701 395.448 89.9341 395.376 89.9341C395.142 89.9341 393.665 91.231 392.782 92.9962C391.863 94.8155 391.449 96.7428 391.449 98.9583C391.449 100.561 391.701 102.705 392.638 104.632C393.701 106.794 395.178 107.965 395.376 107.965C395.448 107.965 395.538 107.929 395.538 107.82Z" fill="#E5C494"/>
<path d="M404.522 94.3831C404.522 92.5459 403.946 90.7626 402.469 90.7626C399.947 90.7626 397.263 96.0403 397.263 100.003C397.263 100.832 397.443 103.624 399.334 103.624C401.784 103.624 404.522 98.472 404.522 94.3831ZM399.064 96.9229C399.334 95.8602 399.713 94.3471 400.433 93.0682C401.028 91.9875 401.658 91.1229 402.451 91.1229C403.045 91.1229 403.441 91.6272 403.441 93.3564C403.441 94.0049 403.387 94.9055 402.865 96.9229H399.064ZM402.739 97.4633C402.289 99.2285 401.91 100.363 401.262 101.498C400.739 102.417 400.109 103.263 399.353 103.263C398.794 103.263 398.344 102.831 398.344 101.048C398.344 99.8769 398.632 98.6521 398.92 97.4633H402.739Z" fill="#E5C494"/>
<path d="M409.25 99.0083C409.346 99.0083 409.49 99.0083 409.49 98.8642C409.49 98.8162 409.478 98.8042 409.322 98.6481C407.677 97.099 407.269 94.8654 407.269 93.0042C407.269 89.5458 408.698 87.9246 409.31 87.3723C409.478 87.2161 409.49 87.2041 409.49 87.1441C409.49 87.0841 409.442 87 409.322 87C409.13 87 408.53 87.6124 408.434 87.7205C406.825 89.4017 406.488 91.5632 406.488 93.0042C406.488 95.694 407.617 97.8555 409.25 99.0083Z" fill="#E5C494"/>
<path d="M412.867 91.2269H414.044C414.272 91.2269 414.416 91.2269 414.416 90.9988C414.416 90.8306 414.26 90.8306 414.056 90.8306H412.963L413.396 89.1255C413.444 88.9453 413.444 88.8853 413.444 88.8733C413.444 88.6211 413.252 88.501 413.047 88.501C412.639 88.501 412.555 88.8253 412.423 89.3656L412.051 90.8306H410.898C410.67 90.8306 410.514 90.8306 410.514 91.0588C410.514 91.2269 410.67 91.2269 410.874 91.2269H411.955L411.234 94.1089C411.162 94.4091 411.054 94.8294 411.054 94.9975C411.054 95.718 411.642 96.1263 412.279 96.1263C413.564 96.1263 414.296 94.4331 414.296 94.289C414.296 94.1569 414.188 94.1329 414.116 94.1329C413.984 94.1329 413.972 94.181 413.888 94.3611C413.648 94.9375 413.047 95.7901 412.315 95.7901C412.063 95.7901 411.919 95.622 411.919 95.2257C411.919 94.9975 411.955 94.8654 411.991 94.7093L412.867 91.2269Z" fill="#E5C494"/>
<path d="M418.531 93.0042C418.531 91.8634 418.339 90.4944 417.595 89.0774C417.006 87.9727 415.914 87 415.697 87C415.577 87 415.541 87.0841 415.541 87.1441C415.541 87.1921 415.541 87.2161 415.685 87.3602C417.367 88.9574 417.751 91.1549 417.751 93.0042C417.751 96.4505 416.322 98.0837 415.709 98.636C415.553 98.7922 415.541 98.8042 415.541 98.8642C415.541 98.9242 415.577 99.0083 415.697 99.0083C415.89 99.0083 416.49 98.3959 416.586 98.2878C418.195 96.6066 418.531 94.4451 418.531 93.0042Z" fill="#E5C494"/>
<path d="M425.613 98.9583C425.613 97.5894 425.433 95.3558 424.424 93.2664C423.361 91.1049 421.884 89.9341 421.686 89.9341C421.614 89.9341 421.524 89.9701 421.524 90.0782C421.524 90.1322 421.524 90.1682 421.83 90.4745C423.631 92.2937 424.64 95.2658 424.64 98.9403C424.64 102.435 423.793 105.443 421.704 107.568C421.524 107.73 421.524 107.766 421.524 107.82C421.524 107.929 421.614 107.965 421.686 107.965C421.92 107.965 423.397 106.668 424.28 104.902C425.198 103.065 425.613 101.12 425.613 98.9583Z" fill="#E5C494"/>
<path d="M432.472 98.9583C432.472 97.5894 432.291 95.3558 431.283 93.2664C430.22 91.1049 428.743 89.9341 428.545 89.9341C428.473 89.9341 428.383 89.9701 428.383 90.0782C428.383 90.1322 428.383 90.1682 428.689 90.4745C430.49 92.2937 431.499 95.2658 431.499 98.9403C431.499 102.435 430.652 105.443 428.563 107.568C428.383 107.73 428.383 107.766 428.383 107.82C428.383 107.929 428.473 107.965 428.545 107.965C428.779 107.965 430.256 106.668 431.139 104.902C432.057 103.065 432.472 101.12 432.472 98.9583Z" fill="#E5C494"/>
<path d="M698.089 103.82C698.089 103.766 698.089 103.73 697.783 103.424C695.981 101.605 694.973 98.6329 694.973 94.9583C694.973 91.4639 695.819 88.4558 697.909 86.3304C698.089 86.1682 698.089 86.1322 698.089 86.0782C698.089 85.9701 697.999 85.9341 697.927 85.9341C697.693 85.9341 696.216 87.231 695.333 88.9962C694.414 90.8155 694 92.7428 694 94.9583C694 96.5614 694.252 98.7049 695.189 100.632C696.252 102.794 697.729 103.965 697.927 103.965C697.999 103.965 698.089 103.929 698.089 103.82Z" fill="#8DA0CB"/>
<path d="M707.073 90.3831C707.073 88.5459 706.497 86.7626 705.02 86.7626C702.498 86.7626 699.814 92.0403 699.814 96.003C699.814 96.8316 699.994 99.6235 701.886 99.6235C704.335 99.6235 707.073 94.472 707.073 90.3831ZM701.615 92.9229C701.886 91.8602 702.264 90.3471 702.984 89.0682C703.579 87.9875 704.209 87.1229 705.002 87.1229C705.596 87.1229 705.992 87.6272 705.992 89.3564C705.992 90.0049 705.938 90.9055 705.416 92.9229H701.615ZM705.29 93.4633C704.84 95.2285 704.461 96.3633 703.813 97.4981C703.29 98.4167 702.66 99.2633 701.904 99.2633C701.345 99.2633 700.895 98.831 700.895 97.0477C700.895 95.8769 701.183 94.6521 701.471 93.4633H705.29Z" fill="#8DA0CB"/>
<path d="M711.801 95.0083C711.898 95.0083 712.042 95.0083 712.042 94.8642C712.042 94.8162 712.03 94.8042 711.874 94.6481C710.228 93.099 709.82 90.8654 709.82 89.0042C709.82 85.5458 711.249 83.9246 711.862 83.3723C712.03 83.2161 712.042 83.2041 712.042 83.1441C712.042 83.0841 711.994 83 711.874 83C711.681 83 711.081 83.6124 710.985 83.7205C709.376 85.4017 709.04 87.5632 709.04 89.0042C709.04 91.694 710.168 93.8555 711.801 95.0083Z" fill="#8DA0CB"/>
<path d="M715.418 87.2269H716.595C716.823 87.2269 716.967 87.2269 716.967 86.9988C716.967 86.8306 716.811 86.8306 716.607 86.8306H715.514L715.947 85.1255C715.995 84.9453 715.995 84.8853 715.995 84.8733C715.995 84.6211 715.803 84.501 715.598 84.501C715.19 84.501 715.106 84.8253 714.974 85.3656L714.602 86.8306H713.449C713.221 86.8306 713.065 86.8306 713.065 87.0588C713.065 87.2269 713.221 87.2269 713.425 87.2269H714.506L713.785 90.1089C713.713 90.4091 713.605 90.8294 713.605 90.9975C713.605 91.718 714.193 92.1263 714.83 92.1263C716.115 92.1263 716.847 90.4331 716.847 90.289C716.847 90.1569 716.739 90.1329 716.667 90.1329C716.535 90.1329 716.523 90.181 716.439 90.3611C716.199 90.9375 715.598 91.7901 714.866 91.7901C714.614 91.7901 714.47 91.622 714.47 91.2257C714.47 90.9975 714.506 90.8654 714.542 90.7093L715.418 87.2269Z" fill="#8DA0CB"/>
<path d="M722.608 89.2803H726.138C726.306 89.2803 726.57 89.2803 726.57 89.0041C726.57 88.728 726.306 88.728 726.138 88.728H722.608V85.1855C722.608 85.0174 722.608 84.7532 722.331 84.7532C722.055 84.7532 722.055 85.0174 722.055 85.1855V88.728H718.513C718.345 88.728 718.08 88.728 718.08 89.0041C718.08 89.2803 718.345 89.2803 718.513 89.2803H722.055V92.8228C722.055 92.9909 722.055 93.2551 722.331 93.2551C722.608 93.2551 722.608 92.9909 722.608 92.8228V89.2803Z" fill="#8DA0CB"/>
<path d="M731.066 84.3569C731.066 84.0327 731.042 84.0207 730.718 84.0207C730.226 84.501 729.589 84.7892 728.448 84.7892V85.1855C728.773 85.1855 729.421 85.1855 730.118 84.8613V91.0215C730.118 91.4658 730.081 91.6099 728.941 91.6099H728.52V92.0062C729.013 91.9702 730.045 91.9702 730.586 91.9702C731.126 91.9702 732.171 91.9702 732.663 92.0062V91.6099H732.243C731.102 91.6099 731.066 91.4658 731.066 91.0215V84.3569Z" fill="#8DA0CB"/>
<path d="M737.386 89.0042C737.386 87.8634 737.194 86.4944 736.449 85.0774C735.861 83.9727 734.768 83 734.552 83C734.432 83 734.396 83.0841 734.396 83.1441C734.396 83.1921 734.396 83.2161 734.54 83.3602C736.221 84.9574 736.605 87.1549 736.605 89.0042C736.605 92.4505 735.176 94.0837 734.564 94.636C734.408 94.7922 734.396 94.8042 734.396 94.8642C734.396 94.9242 734.432 95.0083 734.552 95.0083C734.744 95.0083 735.344 94.3959 735.44 94.2878C737.049 92.6066 737.386 90.4451 737.386 89.0042Z" fill="#8DA0CB"/>
<path d="M742.9 99.5155C742.9 98.4708 742.558 97.6962 741.819 97.6962C741.243 97.6962 740.955 98.1646 740.955 98.5608C740.955 98.9571 741.225 99.4434 741.837 99.4434C742.071 99.4434 742.269 99.3714 742.432 99.2093C742.468 99.1732 742.486 99.1732 742.504 99.1732C742.54 99.1732 742.54 99.4254 742.54 99.5155C742.54 100.11 742.432 101.281 741.387 102.452C741.189 102.668 741.189 102.704 741.189 102.74C741.189 102.83 741.279 102.92 741.369 102.92C741.513 102.92 742.9 101.587 742.9 99.5155Z" fill="#8DA0CB"/>
<path d="M750.963 99.4434C755.16 99.4434 761.086 96.2372 761.086 91.3198C761.086 89.7167 760.33 88.708 759.447 88.1496C757.898 87.1409 756.241 87.1409 754.53 87.1409C752.981 87.1409 751.918 87.1409 750.405 87.7894C748.009 88.8521 747.667 90.3471 747.667 90.4912C747.667 90.5993 747.739 90.6353 747.847 90.6353C748.135 90.6353 748.549 90.3832 748.694 90.2931C749.072 90.0409 749.126 89.9329 749.234 89.5906C749.486 88.8701 749.99 88.2397 752.26 88.1316C751.972 91.8962 751.053 95.3366 749.792 98.4888C749.126 98.7229 748.694 99.1372 748.694 99.3173C748.694 99.4254 748.712 99.4434 749.108 99.4434H750.963ZM751.053 98.4528C753.107 93.4273 753.485 90.2931 753.737 88.1316C754.944 88.1316 759.555 88.1316 759.555 92.0944C759.555 95.6248 756.385 98.4528 752.026 98.4528H751.053Z" fill="#8DA0CB"/>
<path d="M767.538 103.82C767.538 103.766 767.538 103.73 767.232 103.424C765.43 101.605 764.422 98.6329 764.422 94.9583C764.422 91.4639 765.268 88.4558 767.358 86.3304C767.538 86.1682 767.538 86.1322 767.538 86.0782C767.538 85.9701 767.448 85.9341 767.376 85.9341C767.142 85.9341 765.665 87.231 764.782 88.9962C763.863 90.8155 763.449 92.7428 763.449 94.9583C763.449 96.5614 763.701 98.7049 764.638 100.632C765.701 102.794 767.178 103.965 767.376 103.965C767.448 103.965 767.538 103.929 767.538 103.82Z" fill="#8DA0CB"/>
<path d="M776.522 90.3831C776.522 88.5459 775.946 86.7626 774.469 86.7626C771.947 86.7626 769.263 92.0403 769.263 96.003C769.263 96.8316 769.443 99.6235 771.334 99.6235C773.784 99.6235 776.522 94.472 776.522 90.3831ZM771.064 92.9229C771.334 91.8602 771.713 90.3471 772.433 89.0682C773.028 87.9875 773.658 87.1229 774.451 87.1229C775.045 87.1229 775.441 87.6272 775.441 89.3564C775.441 90.0049 775.387 90.9055 774.865 92.9229H771.064ZM774.739 93.4633C774.288 95.2285 773.91 96.3633 773.262 97.4981C772.739 98.4167 772.109 99.2633 771.352 99.2633C770.794 99.2633 770.344 98.831 770.344 97.0477C770.344 95.8769 770.632 94.6521 770.92 93.4633H774.739Z" fill="#8DA0CB"/>
<path d="M781.25 95.0083C781.346 95.0083 781.49 95.0083 781.49 94.8642C781.49 94.8162 781.478 94.8042 781.322 94.6481C779.677 93.099 779.269 90.8654 779.269 89.0042C779.269 85.5458 780.698 83.9246 781.31 83.3723C781.478 83.2161 781.49 83.2041 781.49 83.1441C781.49 83.0841 781.442 83 781.322 83C781.13 83 780.53 83.6124 780.434 83.7205C778.825 85.4017 778.488 87.5632 778.488 89.0042C778.488 91.694 779.617 93.8555 781.25 95.0083Z" fill="#8DA0CB"/>
<path d="M784.867 87.2269H786.044C786.272 87.2269 786.416 87.2269 786.416 86.9988C786.416 86.8306 786.26 86.8306 786.056 86.8306H784.963L785.396 85.1255C785.444 84.9453 785.444 84.8853 785.444 84.8733C785.444 84.6211 785.252 84.501 785.047 84.501C784.639 84.501 784.555 84.8253 784.423 85.3656L784.051 86.8306H782.898C782.67 86.8306 782.514 86.8306 782.514 87.0588C782.514 87.2269 782.67 87.2269 782.874 87.2269H783.955L783.234 90.1089C783.162 90.4091 783.054 90.8294 783.054 90.9975C783.054 91.718 783.642 92.1263 784.279 92.1263C785.564 92.1263 786.296 90.4331 786.296 90.289C786.296 90.1569 786.188 90.1329 786.116 90.1329C785.984 90.1329 785.972 90.181 785.888 90.3611C785.648 90.9375 785.047 91.7901 784.315 91.7901C784.063 91.7901 783.919 91.622 783.919 91.2257C783.919 90.9975 783.955 90.8654 783.991 90.7093L784.867 87.2269Z" fill="#8DA0CB"/>
<path d="M792.056 89.2803H795.587C795.755 89.2803 796.019 89.2803 796.019 89.0041C796.019 88.728 795.755 88.728 795.587 88.728H792.056V85.1855C792.056 85.0174 792.056 84.7532 791.78 84.7532C791.504 84.7532 791.504 85.0174 791.504 85.1855V88.728H787.962C787.793 88.728 787.529 88.728 787.529 89.0041C787.529 89.2803 787.793 89.2803 787.962 89.2803H791.504V92.8228C791.504 92.9909 791.504 93.2551 791.78 93.2551C792.056 93.2551 792.056 92.9909 792.056 92.8228V89.2803Z" fill="#8DA0CB"/>
<path d="M800.515 84.3569C800.515 84.0327 800.491 84.0207 800.167 84.0207C799.675 84.501 799.038 84.7892 797.897 84.7892V85.1855C798.222 85.1855 798.87 85.1855 799.566 84.8613V91.0215C799.566 91.4658 799.53 91.6099 798.39 91.6099H797.969V92.0062C798.462 91.9702 799.494 91.9702 800.035 91.9702C800.575 91.9702 801.62 91.9702 802.112 92.0062V91.6099H801.692C800.551 91.6099 800.515 91.4658 800.515 91.0215V84.3569Z" fill="#8DA0CB"/>
<path d="M806.835 89.0042C806.835 87.8634 806.642 86.4944 805.898 85.0774C805.309 83.9727 804.217 83 804.001 83C803.881 83 803.844 83.0841 803.844 83.1441C803.844 83.1921 803.844 83.2161 803.989 83.3602C805.67 84.9574 806.054 87.1549 806.054 89.0042C806.054 92.4505 804.625 94.0837 804.013 94.636C803.856 94.7922 803.844 94.8042 803.844 94.8642C803.844 94.9242 803.881 95.0083 804.001 95.0083C804.193 95.0083 804.793 94.3959 804.889 94.2878C806.498 92.6066 806.835 90.4451 806.835 89.0042Z" fill="#8DA0CB"/>
<path d="M813.916 94.9583C813.916 93.5894 813.736 91.3558 812.727 89.2664C811.664 87.1049 810.187 85.9341 809.989 85.9341C809.917 85.9341 809.827 85.9701 809.827 86.0782C809.827 86.1322 809.827 86.1682 810.133 86.4745C811.934 88.2937 812.943 91.2658 812.943 94.9403C812.943 98.4347 812.097 101.443 810.007 103.568C809.827 103.73 809.827 103.766 809.827 103.82C809.827 103.929 809.917 103.965 809.989 103.965C810.223 103.965 811.7 102.668 812.583 100.902C813.502 99.0652 813.916 97.1198 813.916 94.9583Z" fill="#8DA0CB"/>
<path d="M820.775 94.9583C820.775 93.5894 820.594 91.3558 819.586 89.2664C818.523 87.1049 817.046 85.9341 816.848 85.9341C816.776 85.9341 816.686 85.9701 816.686 86.0782C816.686 86.1322 816.686 86.1682 816.992 86.4745C818.793 88.2937 819.802 91.2658 819.802 94.9403C819.802 98.4347 818.955 101.443 816.866 103.568C816.686 103.73 816.686 103.766 816.686 103.82C816.686 103.929 816.776 103.965 816.848 103.965C817.082 103.965 818.559 102.668 819.442 100.902C820.36 99.0652 820.775 97.1198 820.775 94.9583Z" fill="#8DA0CB"/>
</svg>
