<svg width="453" height="75" viewBox="0 0 453 75" fill="none" xmlns="http://www.w3.org/2000/svg">
<rect width="453" height="75" fill="white"/>
<path d="M141.445 23.3089C141.965 23.1229 142.236 22.5506 142.05 22.0305L139.019 13.5562C138.833 13.0362 138.261 12.7654 137.741 12.9514C137.221 13.1373 136.95 13.7097 137.136 14.2297L139.83 21.7625L132.297 24.4565C131.777 24.6424 131.507 25.2148 131.693 25.7348C131.879 26.2548 132.451 26.5256 132.971 26.3397L141.445 23.3089ZM73.1101 22.8245L73.5499 23.7226L85.8219 17.7129L85.3821 16.8148L84.9423 15.9167L72.6702 21.9264L73.1101 22.8245ZM128.757 16.5231L128.329 17.4271L140.681 23.2712L141.109 22.3673L141.536 21.4634L129.184 15.6192L128.757 16.5231ZM85.3821 16.8148L85.8219 17.7129C99.2098 11.1567 114.854 11.0515 128.329 17.4271L128.757 16.5231L129.184 15.6192C115.16 8.98341 98.8767 9.0929 84.9423 15.9167L85.3821 16.8148Z" fill="black"/>
<rect x="5" y="5" width="67" height="45" rx="10" fill="#D9D9D9"/>
<path d="M24.642 23L22.2557 14.2727H23.3295L25.1534 21.3807H25.2386L27.0966 14.2727H28.2898L30.1477 21.3807H30.233L32.0568 14.2727H33.1307L30.7443 23H29.6534L27.7273 16.0455H27.6591L25.733 23H24.642ZM36.3608 23.1364C35.7699 23.1364 35.2514 22.9957 34.8054 22.7145C34.3622 22.4332 34.0156 22.0398 33.7656 21.5341C33.5185 21.0284 33.3949 20.4375 33.3949 19.7614C33.3949 19.0795 33.5185 18.4844 33.7656 17.9759C34.0156 17.4673 34.3622 17.0724 34.8054 16.7912C35.2514 16.5099 35.7699 16.3693 36.3608 16.3693C36.9517 16.3693 37.4688 16.5099 37.9119 16.7912C38.358 17.0724 38.7045 17.4673 38.9517 17.9759C39.2017 18.4844 39.3267 19.0795 39.3267 19.7614C39.3267 20.4375 39.2017 21.0284 38.9517 21.5341C38.7045 22.0398 38.358 22.4332 37.9119 22.7145C37.4688 22.9957 36.9517 23.1364 36.3608 23.1364ZM36.3608 22.233C36.8097 22.233 37.179 22.1179 37.4688 21.8878C37.7585 21.6577 37.973 21.3551 38.1122 20.9801C38.2514 20.6051 38.321 20.1989 38.321 19.7614C38.321 19.3239 38.2514 18.9162 38.1122 18.5384C37.973 18.1605 37.7585 17.8551 37.4688 17.6222C37.179 17.3892 36.8097 17.2727 36.3608 17.2727C35.9119 17.2727 35.5426 17.3892 35.2528 17.6222C34.9631 17.8551 34.7486 18.1605 34.6094 18.5384C34.4702 18.9162 34.4006 19.3239 34.4006 19.7614C34.4006 20.1989 34.4702 20.6051 34.6094 20.9801C34.7486 21.3551 34.9631 21.6577 35.2528 21.8878C35.5426 22.1179 35.9119 22.233 36.3608 22.233ZM40.8619 23V16.4545H41.8335V17.4432H41.9016C42.021 17.1193 42.2369 16.8565 42.5494 16.6548C42.8619 16.4531 43.2141 16.3523 43.6062 16.3523C43.68 16.3523 43.7724 16.3537 43.8832 16.3565C43.994 16.3594 44.0778 16.3636 44.1346 16.3693V17.392C44.1005 17.3835 44.0224 17.3707 43.9002 17.3537C43.7809 17.3338 43.6545 17.3239 43.521 17.3239C43.2028 17.3239 42.9187 17.3906 42.6687 17.5241C42.4215 17.6548 42.2255 17.8366 42.0806 18.0696C41.9386 18.2997 41.8675 18.5625 41.8675 18.858V23H40.8619ZM46.3324 14.2727V23H45.3267V14.2727H46.3324ZM50.646 23.1364C50.1005 23.1364 49.619 22.9986 49.2013 22.723C48.7837 22.4446 48.457 22.0526 48.2212 21.5469C47.9854 21.0384 47.8675 20.4375 47.8675 19.7443C47.8675 19.0568 47.9854 18.4602 48.2212 17.9545C48.457 17.4489 48.7852 17.0582 49.2056 16.7827C49.6261 16.5071 50.1119 16.3693 50.663 16.3693C51.0891 16.3693 51.4258 16.4403 51.6729 16.5824C51.9229 16.7216 52.1133 16.8807 52.244 17.0597C52.3775 17.2358 52.4812 17.3807 52.555 17.4943H52.6403V14.2727H53.646V23H52.6744V21.9943H52.555C52.4812 22.1136 52.3761 22.2642 52.2397 22.446C52.1033 22.625 51.9087 22.7855 51.6559 22.9276C51.4031 23.0668 51.0664 23.1364 50.646 23.1364ZM50.7823 22.233C51.1857 22.233 51.5266 22.1278 51.805 21.9176C52.0835 21.7045 52.2951 21.4105 52.44 21.0355C52.5849 20.6577 52.6573 20.2216 52.6573 19.7273C52.6573 19.2386 52.5863 18.8111 52.4442 18.4446C52.3022 18.0753 52.092 17.7884 51.8136 17.5838C51.5352 17.3764 51.1914 17.2727 50.7823 17.2727C50.3562 17.2727 50.0011 17.3821 49.717 17.6009C49.4357 17.8168 49.2241 18.1108 49.082 18.483C48.9428 18.8523 48.8732 19.267 48.8732 19.7273C48.8732 20.1932 48.9442 20.6165 49.0863 20.9972C49.2312 21.375 49.4442 21.6761 49.7255 21.9006C50.0096 22.1222 50.3619 22.233 50.7823 22.233Z" fill="black"/>
<path d="M34.9814 42.1944C34.6391 42.1944 34.441 42.1944 33.9907 42.4646C33.8466 42.5547 33.4143 42.8429 33.4143 43.059C33.4143 43.1851 33.5043 43.1851 33.5944 43.1851C34.8012 43.2392 35.5398 43.4013 37.341 44.0317C38.5839 44.482 39.8627 44.9323 41.2857 44.9323C43.3932 44.9323 45.1404 43.077 45.1404 42.3385C45.1404 42.2485 45.0683 42.1944 44.9783 42.1944C44.7982 42.1944 44.4199 42.3385 44.1317 42.5367C43.7174 42.8069 43.6814 42.9329 43.5913 43.1671C43.3391 43.8876 42.9609 43.9416 42.4746 43.9416C41.2857 43.9416 40.4752 43.6534 37.8814 42.7708C40.9975 41.8882 44.9242 38.7721 44.9242 34.4311C44.9242 31.9814 43.5913 30 40.9435 30C37.269 30 33 33.7646 33 37.5112C33 39.4205 34.1348 40.8615 36.1342 40.8615C37.9534 40.8615 40.0068 39.6727 40.0068 39.2404C40.0068 39.1323 39.8808 39.1323 39.8087 39.1323C39.5565 39.1323 39.2503 39.3124 38.9981 39.4385C38.2596 39.8528 37.5031 39.8708 37.323 39.8708C35.7019 39.8708 34.5311 38.61 34.5311 36.7547C34.5311 34.5031 36.5665 30.9907 39.7547 30.9907C42.0242 30.9907 43.3932 32.7919 43.3932 35.1876C43.3932 36.9708 42.6547 39.0062 40.9435 40.5193C39.7727 41.582 38.4578 42.1944 35.5037 42.1944H34.9814Z" fill="black"/>
<rect x="142" y="5" width="67" height="45" rx="10" fill="#D9D9D9"/>
<path d="M160.057 14.2727H161.318L164.284 21.517H164.386L167.352 14.2727H168.614V23H167.625V16.3693H167.54L164.812 23H163.858L161.131 16.3693H161.045V23H160.057V14.2727ZM173.255 23.1364C172.664 23.1364 172.146 22.9957 171.7 22.7145C171.257 22.4332 170.91 22.0398 170.66 21.5341C170.413 21.0284 170.289 20.4375 170.289 19.7614C170.289 19.0795 170.413 18.4844 170.66 17.9759C170.91 17.4673 171.257 17.0724 171.7 16.7912C172.146 16.5099 172.664 16.3693 173.255 16.3693C173.846 16.3693 174.363 16.5099 174.806 16.7912C175.252 17.0724 175.599 17.4673 175.846 17.9759C176.096 18.4844 176.221 19.0795 176.221 19.7614C176.221 20.4375 176.096 21.0284 175.846 21.5341C175.599 22.0398 175.252 22.4332 174.806 22.7145C174.363 22.9957 173.846 23.1364 173.255 23.1364ZM173.255 22.233C173.704 22.233 174.074 22.1179 174.363 21.8878C174.653 21.6577 174.868 21.3551 175.007 20.9801C175.146 20.6051 175.216 20.1989 175.216 19.7614C175.216 19.3239 175.146 18.9162 175.007 18.5384C174.868 18.1605 174.653 17.8551 174.363 17.6222C174.074 17.3892 173.704 17.2727 173.255 17.2727C172.806 17.2727 172.437 17.3892 172.147 17.6222C171.858 17.8551 171.643 18.1605 171.504 18.5384C171.365 18.9162 171.295 19.3239 171.295 19.7614C171.295 20.1989 171.365 20.6051 171.504 20.9801C171.643 21.3551 171.858 21.6577 172.147 21.8878C172.437 22.1179 172.806 22.233 173.255 22.233ZM180.228 23.1364C179.683 23.1364 179.201 22.9986 178.783 22.723C178.366 22.4446 178.039 22.0526 177.803 21.5469C177.567 21.0384 177.45 20.4375 177.45 19.7443C177.45 19.0568 177.567 18.4602 177.803 17.9545C178.039 17.4489 178.367 17.0582 178.788 16.7827C179.208 16.5071 179.694 16.3693 180.245 16.3693C180.671 16.3693 181.008 16.4403 181.255 16.5824C181.505 16.7216 181.695 16.8807 181.826 17.0597C181.96 17.2358 182.063 17.3807 182.137 17.4943H182.222V14.2727H183.228V23H182.256V21.9943H182.137C182.063 22.1136 181.958 22.2642 181.822 22.446C181.685 22.625 181.491 22.7855 181.238 22.9276C180.985 23.0668 180.648 23.1364 180.228 23.1364ZM180.364 22.233C180.768 22.233 181.109 22.1278 181.387 21.9176C181.665 21.7045 181.877 21.4105 182.022 21.0355C182.167 20.6577 182.239 20.2216 182.239 19.7273C182.239 19.2386 182.168 18.8111 182.026 18.4446C181.884 18.0753 181.674 17.7884 181.396 17.5838C181.117 17.3764 180.773 17.2727 180.364 17.2727C179.938 17.2727 179.583 17.3821 179.299 17.6009C179.018 17.8168 178.806 18.1108 178.664 18.483C178.525 18.8523 178.455 19.267 178.455 19.7273C178.455 20.1932 178.526 20.6165 178.668 20.9972C178.813 21.375 179.026 21.6761 179.308 21.9006C179.592 22.1222 179.944 22.233 180.364 22.233ZM187.954 23.1364C187.323 23.1364 186.779 22.9972 186.322 22.7188C185.867 22.4375 185.516 22.0455 185.269 21.5426C185.025 21.0369 184.903 20.4489 184.903 19.7784C184.903 19.108 185.025 18.517 185.269 18.0057C185.516 17.4915 185.86 17.0909 186.3 16.804C186.744 16.5142 187.261 16.3693 187.852 16.3693C188.192 16.3693 188.529 16.4261 188.862 16.5398C189.194 16.6534 189.496 16.8381 189.769 17.0938C190.042 17.3466 190.259 17.6818 190.421 18.0994C190.583 18.517 190.664 19.0312 190.664 19.642V20.0682H185.619V19.1989H189.641C189.641 18.8295 189.567 18.5 189.42 18.2102C189.275 17.9205 189.067 17.6918 188.798 17.5241C188.531 17.3565 188.215 17.2727 187.852 17.2727C187.451 17.2727 187.104 17.3722 186.812 17.571C186.522 17.767 186.299 18.0227 186.143 18.3381C185.987 18.6534 185.908 18.9915 185.908 19.3523V19.9318C185.908 20.4261 185.994 20.8452 186.164 21.1889C186.337 21.5298 186.577 21.7898 186.884 21.9688C187.191 22.1449 187.548 22.233 187.954 22.233C188.218 22.233 188.457 22.196 188.67 22.1222C188.886 22.0455 189.072 21.9318 189.228 21.7812C189.384 21.6278 189.505 21.4375 189.59 21.2102L190.562 21.483C190.46 21.8125 190.288 22.1023 190.046 22.3523C189.805 22.5994 189.506 22.7926 189.151 22.9318C188.796 23.0682 188.397 23.1364 187.954 23.1364ZM193.2 14.2727V23H192.194V14.2727H193.2Z" fill="black"/>
<path d="M179.259 31.6205C179.259 29.7832 178.683 28 177.206 28C174.684 28 172 33.2776 172 37.2404C172 38.069 172.18 40.8609 174.071 40.8609C176.521 40.8609 179.259 35.7093 179.259 31.6205ZM173.801 34.1603C174.071 33.0975 174.45 31.5845 175.17 30.3056C175.765 29.2248 176.395 28.3602 177.188 28.3602C177.782 28.3602 178.178 28.8646 178.178 30.5938C178.178 31.2422 178.124 32.1429 177.602 34.1603H173.801ZM177.476 34.7006C177.025 36.4659 176.647 37.6006 175.999 38.7354C175.476 39.6541 174.846 40.5006 174.089 40.5006C173.531 40.5006 173.081 40.0683 173.081 38.2851C173.081 37.1143 173.369 35.8895 173.657 34.7006H177.476Z" fill="black"/>
<rect x="247" y="5" width="67" height="45" rx="10" fill="#D9D9D9"/>
<path d="M266.642 23L264.256 14.2727H265.33L267.153 21.3807H267.239L269.097 14.2727H270.29L272.148 21.3807H272.233L274.057 14.2727H275.131L272.744 23H271.653L269.727 16.0455H269.659L267.733 23H266.642ZM278.361 23.1364C277.77 23.1364 277.251 22.9957 276.805 22.7145C276.362 22.4332 276.016 22.0398 275.766 21.5341C275.518 21.0284 275.395 20.4375 275.395 19.7614C275.395 19.0795 275.518 18.4844 275.766 17.9759C276.016 17.4673 276.362 17.0724 276.805 16.7912C277.251 16.5099 277.77 16.3693 278.361 16.3693C278.952 16.3693 279.469 16.5099 279.912 16.7912C280.358 17.0724 280.705 17.4673 280.952 17.9759C281.202 18.4844 281.327 19.0795 281.327 19.7614C281.327 20.4375 281.202 21.0284 280.952 21.5341C280.705 22.0398 280.358 22.4332 279.912 22.7145C279.469 22.9957 278.952 23.1364 278.361 23.1364ZM278.361 22.233C278.81 22.233 279.179 22.1179 279.469 21.8878C279.759 21.6577 279.973 21.3551 280.112 20.9801C280.251 20.6051 280.321 20.1989 280.321 19.7614C280.321 19.3239 280.251 18.9162 280.112 18.5384C279.973 18.1605 279.759 17.8551 279.469 17.6222C279.179 17.3892 278.81 17.2727 278.361 17.2727C277.912 17.2727 277.543 17.3892 277.253 17.6222C276.963 17.8551 276.749 18.1605 276.609 18.5384C276.47 18.9162 276.401 19.3239 276.401 19.7614C276.401 20.1989 276.47 20.6051 276.609 20.9801C276.749 21.3551 276.963 21.6577 277.253 21.8878C277.543 22.1179 277.912 22.233 278.361 22.233ZM282.862 23V16.4545H283.833V17.4432H283.902C284.021 17.1193 284.237 16.8565 284.549 16.6548C284.862 16.4531 285.214 16.3523 285.606 16.3523C285.68 16.3523 285.772 16.3537 285.883 16.3565C285.994 16.3594 286.078 16.3636 286.135 16.3693V17.392C286.1 17.3835 286.022 17.3707 285.9 17.3537C285.781 17.3338 285.654 17.3239 285.521 17.3239C285.203 17.3239 284.919 17.3906 284.669 17.5241C284.422 17.6548 284.225 17.8366 284.081 18.0696C283.939 18.2997 283.868 18.5625 283.868 18.858V23H282.862ZM288.332 14.2727V23H287.327V14.2727H288.332ZM292.646 23.1364C292.1 23.1364 291.619 22.9986 291.201 22.723C290.784 22.4446 290.457 22.0526 290.221 21.5469C289.985 21.0384 289.868 20.4375 289.868 19.7443C289.868 19.0568 289.985 18.4602 290.221 17.9545C290.457 17.4489 290.785 17.0582 291.206 16.7827C291.626 16.5071 292.112 16.3693 292.663 16.3693C293.089 16.3693 293.426 16.4403 293.673 16.5824C293.923 16.7216 294.113 16.8807 294.244 17.0597C294.377 17.2358 294.481 17.3807 294.555 17.4943H294.64V14.2727H295.646V23H294.674V21.9943H294.555C294.481 22.1136 294.376 22.2642 294.24 22.446C294.103 22.625 293.909 22.7855 293.656 22.9276C293.403 23.0668 293.066 23.1364 292.646 23.1364ZM292.782 22.233C293.186 22.233 293.527 22.1278 293.805 21.9176C294.083 21.7045 294.295 21.4105 294.44 21.0355C294.585 20.6577 294.657 20.2216 294.657 19.7273C294.657 19.2386 294.586 18.8111 294.444 18.4446C294.302 18.0753 294.092 17.7884 293.814 17.5838C293.535 17.3764 293.191 17.2727 292.782 17.2727C292.356 17.2727 292.001 17.3821 291.717 17.6009C291.436 17.8168 291.224 18.1108 291.082 18.483C290.943 18.8523 290.873 19.267 290.873 19.7273C290.873 20.1932 290.944 20.6165 291.086 20.9972C291.231 21.375 291.444 21.6761 291.725 21.9006C292.01 22.1222 292.362 22.233 292.782 22.233Z" fill="black"/>
<path d="M266.296 42.5093C270.493 42.5093 276.419 39.3031 276.419 34.3857C276.419 32.7826 275.663 31.7739 274.78 31.2155C273.231 30.2068 271.574 30.2068 269.863 30.2068C268.314 30.2068 267.251 30.2068 265.738 30.8552C263.342 31.918 263 33.413 263 33.5571C263 33.6652 263.072 33.7012 263.18 33.7012C263.468 33.7012 263.883 33.449 264.027 33.359C264.405 33.1068 264.459 32.9987 264.567 32.6565C264.819 31.936 265.324 31.3055 267.593 31.1975C267.305 34.9621 266.386 38.4025 265.125 41.5546C264.459 41.7888 264.027 42.2031 264.027 42.3832C264.027 42.4913 264.045 42.5093 264.441 42.5093H266.296ZM266.386 41.5186C268.44 36.4931 268.818 33.359 269.07 31.1975C270.277 31.1975 274.888 31.1975 274.888 35.1602C274.888 38.6907 271.718 41.5186 267.359 41.5186H266.386Z" fill="black"/>
<path d="M282.871 46.8864C282.871 46.8323 282.871 46.7963 282.565 46.4901C280.763 44.6708 279.755 41.6988 279.755 38.0242C279.755 34.5298 280.601 31.5217 282.691 29.3963C282.871 29.2342 282.871 29.1981 282.871 29.1441C282.871 29.036 282.781 29 282.709 29C282.475 29 280.998 30.2969 280.115 32.0621C279.196 33.8814 278.782 35.8087 278.782 38.0242C278.782 39.6273 279.034 41.7708 279.971 43.6982C281.034 45.8597 282.511 47.0305 282.709 47.0305C282.781 47.0305 282.871 46.9944 282.871 46.8864Z" fill="black"/>
<path d="M291.855 33.4491C291.855 31.6118 291.279 29.8286 289.802 29.8286C287.28 29.8286 284.596 35.1063 284.596 39.069C284.596 39.8976 284.776 42.6895 286.668 42.6895C289.117 42.6895 291.855 37.5379 291.855 33.4491ZM286.397 35.9889C286.668 34.9261 287.046 33.4131 287.766 32.1342C288.361 31.0535 288.991 30.1889 289.784 30.1889C290.378 30.1889 290.774 30.6932 290.774 32.4224C290.774 33.0709 290.72 33.9715 290.198 35.9889H286.397ZM290.072 36.5292C289.622 38.2945 289.243 39.4293 288.595 40.564C288.073 41.4827 287.442 42.3293 286.686 42.3293C286.127 42.3293 285.677 41.897 285.677 40.1137C285.677 38.9429 285.965 37.7181 286.253 36.5292H290.072Z" fill="black"/>
<path d="M297.664 38.0242C297.664 36.6553 297.484 34.4217 296.475 32.3323C295.413 30.1708 293.936 29 293.737 29C293.665 29 293.575 29.036 293.575 29.1441C293.575 29.1981 293.575 29.2342 293.882 29.5404C295.683 31.3596 296.692 34.3317 296.692 38.0062C296.692 41.5006 295.845 44.5087 293.756 46.6342C293.575 46.7963 293.575 46.8323 293.575 46.8864C293.575 46.9944 293.665 47.0305 293.737 47.0305C293.972 47.0305 295.449 45.7336 296.331 43.9684C297.25 42.1311 297.664 40.1857 297.664 38.0242Z" fill="black"/>
<path d="M313.183 35.7655C312.972 35.2552 313.215 34.6703 313.725 34.4592L322.041 31.0188C322.552 30.8077 323.137 31.0503 323.348 31.5606C323.559 32.0709 323.316 32.6558 322.806 32.8669L315.413 35.925L318.472 43.3175C318.683 43.8278 318.44 44.4127 317.93 44.6238C317.419 44.8349 316.835 44.5923 316.623 44.082L313.183 35.7655ZM328.683 41.4285L328.3 42.3522L328.683 41.4285ZM314.107 35.3833L314.49 34.4595L329.066 40.5048L328.683 41.4285L328.3 42.3522L313.724 36.307L314.107 35.3833ZM367.612 41.1667L367.217 40.2482L381.71 34.0076L382.106 34.926L382.501 35.8445L368.008 42.0852L367.612 41.1667ZM328.683 41.4285L329.066 40.5048C341.295 45.5768 355.057 45.4843 367.217 40.2482L367.612 41.1667L368.008 42.0852C355.351 47.535 341.028 47.6313 328.3 42.3522L328.683 41.4285Z" fill="black"/>
<path d="M382.445 23.3089C382.965 23.1229 383.236 22.5506 383.05 22.0305L380.019 13.5562C379.833 13.0362 379.261 12.7654 378.741 12.9514C378.221 13.1373 377.95 13.7097 378.136 14.2297L380.83 21.7625L373.297 24.4565C372.777 24.6424 372.507 25.2148 372.693 25.7348C372.879 26.2548 373.451 26.5256 373.971 26.3397L382.445 23.3089ZM314.11 22.8245L314.55 23.7226L326.822 17.7129L326.382 16.8148L325.942 15.9167L313.67 21.9264L314.11 22.8245ZM369.757 16.5231L369.329 17.4271L381.681 23.2712L382.109 22.3673L382.536 21.4634L370.184 15.6192L369.757 16.5231ZM326.382 16.8148L326.822 17.7129C340.21 11.1567 355.854 11.0515 369.329 17.4271L369.757 16.5231L370.184 15.6192C356.16 8.98341 339.877 9.0929 325.942 15.9167L326.382 16.8148Z" fill="black"/>
<rect x="384" y="5" width="67" height="45" rx="10" fill="#D9D9D9"/>
<path d="M402.057 14.2727H403.318L406.284 21.517H406.386L409.352 14.2727H410.614V23H409.625V16.3693H409.54L406.812 23H405.858L403.131 16.3693H403.045V23H402.057V14.2727ZM415.255 23.1364C414.664 23.1364 414.146 22.9957 413.7 22.7145C413.257 22.4332 412.91 22.0398 412.66 21.5341C412.413 21.0284 412.289 20.4375 412.289 19.7614C412.289 19.0795 412.413 18.4844 412.66 17.9759C412.91 17.4673 413.257 17.0724 413.7 16.7912C414.146 16.5099 414.664 16.3693 415.255 16.3693C415.846 16.3693 416.363 16.5099 416.806 16.7912C417.252 17.0724 417.599 17.4673 417.846 17.9759C418.096 18.4844 418.221 19.0795 418.221 19.7614C418.221 20.4375 418.096 21.0284 417.846 21.5341C417.599 22.0398 417.252 22.4332 416.806 22.7145C416.363 22.9957 415.846 23.1364 415.255 23.1364ZM415.255 22.233C415.704 22.233 416.074 22.1179 416.363 21.8878C416.653 21.6577 416.868 21.3551 417.007 20.9801C417.146 20.6051 417.216 20.1989 417.216 19.7614C417.216 19.3239 417.146 18.9162 417.007 18.5384C416.868 18.1605 416.653 17.8551 416.363 17.6222C416.074 17.3892 415.704 17.2727 415.255 17.2727C414.806 17.2727 414.437 17.3892 414.147 17.6222C413.858 17.8551 413.643 18.1605 413.504 18.5384C413.365 18.9162 413.295 19.3239 413.295 19.7614C413.295 20.1989 413.365 20.6051 413.504 20.9801C413.643 21.3551 413.858 21.6577 414.147 21.8878C414.437 22.1179 414.806 22.233 415.255 22.233ZM422.228 23.1364C421.683 23.1364 421.201 22.9986 420.783 22.723C420.366 22.4446 420.039 22.0526 419.803 21.5469C419.567 21.0384 419.45 20.4375 419.45 19.7443C419.45 19.0568 419.567 18.4602 419.803 17.9545C420.039 17.4489 420.367 17.0582 420.788 16.7827C421.208 16.5071 421.694 16.3693 422.245 16.3693C422.671 16.3693 423.008 16.4403 423.255 16.5824C423.505 16.7216 423.695 16.8807 423.826 17.0597C423.96 17.2358 424.063 17.3807 424.137 17.4943H424.222V14.2727H425.228V23H424.256V21.9943H424.137C424.063 22.1136 423.958 22.2642 423.822 22.446C423.685 22.625 423.491 22.7855 423.238 22.9276C422.985 23.0668 422.648 23.1364 422.228 23.1364ZM422.364 22.233C422.768 22.233 423.109 22.1278 423.387 21.9176C423.665 21.7045 423.877 21.4105 424.022 21.0355C424.167 20.6577 424.239 20.2216 424.239 19.7273C424.239 19.2386 424.168 18.8111 424.026 18.4446C423.884 18.0753 423.674 17.7884 423.396 17.5838C423.117 17.3764 422.773 17.2727 422.364 17.2727C421.938 17.2727 421.583 17.3821 421.299 17.6009C421.018 17.8168 420.806 18.1108 420.664 18.483C420.525 18.8523 420.455 19.267 420.455 19.7273C420.455 20.1932 420.526 20.6165 420.668 20.9972C420.813 21.375 421.026 21.6761 421.308 21.9006C421.592 22.1222 421.944 22.233 422.364 22.233ZM429.954 23.1364C429.323 23.1364 428.779 22.9972 428.322 22.7188C427.867 22.4375 427.516 22.0455 427.269 21.5426C427.025 21.0369 426.903 20.4489 426.903 19.7784C426.903 19.108 427.025 18.517 427.269 18.0057C427.516 17.4915 427.86 17.0909 428.3 16.804C428.744 16.5142 429.261 16.3693 429.852 16.3693C430.192 16.3693 430.529 16.4261 430.862 16.5398C431.194 16.6534 431.496 16.8381 431.769 17.0938C432.042 17.3466 432.259 17.6818 432.421 18.0994C432.583 18.517 432.664 19.0312 432.664 19.642V20.0682H427.619V19.1989H431.641C431.641 18.8295 431.567 18.5 431.42 18.2102C431.275 17.9205 431.067 17.6918 430.798 17.5241C430.531 17.3565 430.215 17.2727 429.852 17.2727C429.451 17.2727 429.104 17.3722 428.812 17.571C428.522 17.767 428.299 18.0227 428.143 18.3381C427.987 18.6534 427.908 18.9915 427.908 19.3523V19.9318C427.908 20.4261 427.994 20.8452 428.164 21.1889C428.337 21.5298 428.577 21.7898 428.884 21.9688C429.191 22.1449 429.548 22.233 429.954 22.233C430.218 22.233 430.457 22.196 430.67 22.1222C430.886 22.0455 431.072 21.9318 431.228 21.7812C431.384 21.6278 431.505 21.4375 431.59 21.2102L432.562 21.483C432.46 21.8125 432.288 22.1023 432.046 22.3523C431.805 22.5994 431.506 22.7926 431.151 22.9318C430.796 23.0682 430.397 23.1364 429.954 23.1364ZM435.2 14.2727V23H434.194V14.2727H435.2Z" fill="black"/>
<path d="M421.259 31.6205C421.259 29.7832 420.683 28 419.206 28C416.684 28 414 33.2776 414 37.2404C414 38.069 414.18 40.8609 416.071 40.8609C418.521 40.8609 421.259 35.7093 421.259 31.6205ZM415.801 34.1603C416.071 33.0975 416.45 31.5845 417.17 30.3056C417.765 29.2248 418.395 28.3602 419.188 28.3602C419.782 28.3602 420.178 28.8646 420.178 30.5938C420.178 31.2422 420.124 32.1429 419.602 34.1603H415.801ZM419.476 34.7006C419.025 36.4659 418.647 37.6006 417.999 38.7354C417.476 39.6541 416.846 40.5006 416.089 40.5006C415.531 40.5006 415.081 40.0683 415.081 38.2851C415.081 37.1143 415.369 35.8895 415.657 34.7006H419.476Z" fill="black"/>
<path d="M227.273 26.4545L224.852 33H223.83L221.409 26.4545H222.5L224.307 31.6705H224.375L226.182 26.4545H227.273ZM233.237 27.9205L232.333 28.1761C232.276 28.0256 232.192 27.8793 232.082 27.7372C231.974 27.5923 231.826 27.473 231.638 27.3793C231.451 27.2855 231.211 27.2386 230.918 27.2386C230.518 27.2386 230.184 27.331 229.917 27.5156C229.653 27.6974 229.521 27.929 229.521 28.2102C229.521 28.4602 229.612 28.6577 229.793 28.8026C229.975 28.9474 230.259 29.0682 230.646 29.1648L231.617 29.4034C232.202 29.5455 232.638 29.7628 232.925 30.0554C233.212 30.3452 233.356 30.7187 233.356 31.1761C233.356 31.5511 233.248 31.8864 233.032 32.1818C232.819 32.4773 232.521 32.7102 232.137 32.8807C231.754 33.0511 231.308 33.1364 230.799 33.1364C230.131 33.1364 229.579 32.9915 229.141 32.7017C228.704 32.4119 228.427 31.9886 228.31 31.4318L229.265 31.1932C229.356 31.5455 229.528 31.8097 229.781 31.9858C230.036 32.1619 230.37 32.25 230.782 32.25C231.251 32.25 231.623 32.1506 231.898 31.9517C232.177 31.75 232.316 31.5085 232.316 31.2273C232.316 31 232.237 30.8097 232.077 30.6562C231.918 30.5 231.674 30.3835 231.344 30.3068L230.254 30.0511C229.654 29.9091 229.214 29.6889 228.933 29.3906C228.654 29.0895 228.515 28.7131 228.515 28.2614C228.515 27.892 228.619 27.5653 228.826 27.2812C229.036 26.9972 229.322 26.7741 229.683 26.6122C230.046 26.4503 230.458 26.3693 230.918 26.3693C231.566 26.3693 232.075 26.5114 232.444 26.7955C232.816 27.0795 233.08 27.4545 233.237 27.9205ZM235.603 33.0682C235.392 33.0682 235.212 32.9929 235.061 32.8423C234.911 32.6918 234.836 32.5114 234.836 32.3011C234.836 32.0909 234.911 31.9105 235.061 31.7599C235.212 31.6094 235.392 31.5341 235.603 31.5341C235.813 31.5341 235.993 31.6094 236.144 31.7599C236.294 31.9105 236.37 32.0909 236.37 32.3011C236.37 32.4403 236.334 32.5682 236.263 32.6847C236.195 32.8011 236.103 32.8949 235.986 32.9659C235.873 33.0341 235.745 33.0682 235.603 33.0682Z" fill="black"/>
<path d="M36.4588 64.3281H34.5923C34.5582 64.0866 34.4886 63.8722 34.3835 63.6847C34.2784 63.4943 34.1435 63.3324 33.9787 63.1989C33.8139 63.0653 33.6236 62.9631 33.4077 62.892C33.1946 62.821 32.9631 62.7855 32.7131 62.7855C32.2614 62.7855 31.8679 62.8977 31.5327 63.1222C31.1974 63.3437 30.9375 63.6676 30.7528 64.0938C30.5682 64.517 30.4759 65.0312 30.4759 65.6364C30.4759 66.2585 30.5682 66.7812 30.7528 67.2045C30.9403 67.6278 31.2017 67.9474 31.5369 68.1634C31.8722 68.3793 32.2599 68.4872 32.7003 68.4872C32.9474 68.4872 33.1761 68.4545 33.3864 68.3892C33.5994 68.3239 33.7884 68.2287 33.9531 68.1037C34.1179 67.9759 34.2543 67.821 34.3622 67.6392C34.473 67.4574 34.5497 67.25 34.5923 67.017L36.4588 67.0256C36.4105 67.4261 36.2898 67.8125 36.0966 68.1847C35.9063 68.554 35.6491 68.8849 35.3253 69.1776C35.0043 69.4673 34.6207 69.6974 34.1747 69.8679C33.7315 70.0355 33.2301 70.1193 32.6705 70.1193C31.892 70.1193 31.196 69.9432 30.5824 69.5909C29.9716 69.2386 29.4886 68.7287 29.1335 68.0611C28.7812 67.3935 28.6051 66.5852 28.6051 65.6364C28.6051 64.6847 28.7841 63.875 29.142 63.2074C29.5 62.5398 29.9858 62.0312 30.5994 61.6818C31.2131 61.3295 31.9034 61.1534 32.6705 61.1534C33.1761 61.1534 33.6449 61.2244 34.0767 61.3665C34.5114 61.5085 34.8963 61.7159 35.2315 61.9886C35.5668 62.2585 35.8395 62.5895 36.0497 62.9815C36.2628 63.3736 36.3991 63.8224 36.4588 64.3281ZM39.5632 61.2727V70H37.7479V61.2727H39.5632ZM42.8839 70.1236C42.4663 70.1236 42.0941 70.0511 41.7674 69.9062C41.4407 69.7585 41.1822 69.5412 40.9918 69.2543C40.8043 68.9645 40.7106 68.6037 40.7106 68.1719C40.7106 67.8082 40.7773 67.5028 40.9109 67.2557C41.0444 67.0085 41.2262 66.8097 41.4563 66.6591C41.6864 66.5085 41.9478 66.3949 42.2404 66.3182C42.5359 66.2415 42.8455 66.1875 43.1694 66.1562C43.5501 66.1165 43.8569 66.0795 44.0898 66.0455C44.3228 66.0085 44.4918 65.9545 44.5969 65.8835C44.7021 65.8125 44.7546 65.7074 44.7546 65.5682V65.5426C44.7546 65.2727 44.6694 65.0639 44.4989 64.9162C44.3313 64.7685 44.0927 64.6946 43.783 64.6946C43.4563 64.6946 43.1964 64.767 43.0032 64.9119C42.81 65.054 42.6822 65.233 42.6197 65.4489L40.9407 65.3125C41.0259 64.9148 41.1935 64.571 41.4435 64.2812C41.6935 63.9886 42.016 63.7642 42.4109 63.608C42.8086 63.4489 43.2688 63.3693 43.7915 63.3693C44.1552 63.3693 44.5032 63.4119 44.8356 63.4972C45.1708 63.5824 45.4677 63.7145 45.7262 63.8935C45.9876 64.0724 46.1935 64.3026 46.3441 64.5838C46.4947 64.8622 46.57 65.196 46.57 65.5852V70H44.8484V69.0923H44.7972C44.6921 69.2969 44.5515 69.4773 44.3754 69.6335C44.1992 69.7869 43.9876 69.9077 43.7404 69.9957C43.4933 70.081 43.2077 70.1236 42.8839 70.1236ZM43.4038 68.8707C43.6708 68.8707 43.9066 68.8182 44.1112 68.7131C44.3157 68.6051 44.4762 68.4602 44.5927 68.2784C44.7092 68.0966 44.7674 67.8906 44.7674 67.6605V66.9659C44.7106 67.0028 44.6325 67.0369 44.533 67.0682C44.4364 67.0966 44.3271 67.1236 44.2049 67.1491C44.0827 67.1719 43.9606 67.1932 43.8384 67.2131C43.7163 67.2301 43.6055 67.2457 43.506 67.2599C43.293 67.2912 43.1069 67.3409 42.9478 67.4091C42.7887 67.4773 42.6651 67.5696 42.5771 67.6861C42.489 67.7997 42.445 67.9418 42.445 68.1122C42.445 68.3594 42.5344 68.5483 42.7134 68.679C42.8952 68.8068 43.1254 68.8707 43.4038 68.8707ZM53.4244 65.321L51.7624 65.4233C51.734 65.2812 51.6729 65.1534 51.5792 65.0398C51.4854 64.9233 51.3619 64.831 51.2085 64.7628C51.0579 64.6918 50.8775 64.6562 50.6673 64.6562C50.386 64.6562 50.1488 64.7159 49.9556 64.8352C49.7624 64.9517 49.6658 65.108 49.6658 65.304C49.6658 65.4602 49.7283 65.5923 49.8533 65.7003C49.9783 65.8082 50.1928 65.8949 50.4968 65.9602L51.6815 66.1989C52.3178 66.3295 52.7923 66.5398 53.1048 66.8295C53.4173 67.1193 53.5735 67.5 53.5735 67.9716C53.5735 68.4006 53.4471 68.777 53.1942 69.1009C52.9442 69.4247 52.6005 69.6776 52.163 69.8594C51.7283 70.0384 51.2269 70.1278 50.6587 70.1278C49.7923 70.1278 49.1019 69.9474 48.5877 69.5866C48.0763 69.223 47.7766 68.7287 47.6886 68.1037L49.4741 68.0099C49.5281 68.2741 49.6587 68.4759 49.8661 68.6151C50.0735 68.7514 50.3391 68.8196 50.663 68.8196C50.9812 68.8196 51.2369 68.7585 51.43 68.6364C51.6261 68.5114 51.7255 68.3509 51.7283 68.1548C51.7255 67.9901 51.6559 67.8551 51.5195 67.75C51.3832 67.642 51.1729 67.5597 50.8888 67.5028L49.7553 67.277C49.1161 67.1491 48.6403 66.9276 48.3278 66.6122C48.0181 66.2969 47.8633 65.8949 47.8633 65.4062C47.8633 64.9858 47.9769 64.6236 48.2042 64.3196C48.4343 64.0156 48.7567 63.7812 49.1715 63.6165C49.5891 63.4517 50.0778 63.3693 50.6374 63.3693C51.4641 63.3693 52.1147 63.544 52.5891 63.8935C53.0664 64.2429 53.3448 64.7187 53.4244 65.321ZM60.1626 65.321L58.5007 65.4233C58.4723 65.2812 58.4112 65.1534 58.3175 65.0398C58.2237 64.9233 58.1001 64.831 57.9467 64.7628C57.7962 64.6918 57.6158 64.6562 57.4055 64.6562C57.1243 64.6562 56.8871 64.7159 56.6939 64.8352C56.5007 64.9517 56.4041 65.108 56.4041 65.304C56.4041 65.4602 56.4666 65.5923 56.5916 65.7003C56.7166 65.8082 56.9311 65.8949 57.2351 65.9602L58.4197 66.1989C59.0561 66.3295 59.5305 66.5398 59.843 66.8295C60.1555 67.1193 60.3118 67.5 60.3118 67.9716C60.3118 68.4006 60.1854 68.777 59.9325 69.1009C59.6825 69.4247 59.3388 69.6776 58.9013 69.8594C58.4666 70.0384 57.9652 70.1278 57.397 70.1278C56.5305 70.1278 55.8402 69.9474 55.326 69.5866C54.8146 69.223 54.5149 68.7287 54.4268 68.1037L56.2124 68.0099C56.2663 68.2741 56.397 68.4759 56.6044 68.6151C56.8118 68.7514 57.0774 68.8196 57.4013 68.8196C57.7195 68.8196 57.9751 68.7585 58.1683 68.6364C58.3643 68.5114 58.4638 68.3509 58.4666 68.1548C58.4638 67.9901 58.3942 67.8551 58.2578 67.75C58.1214 67.642 57.9112 67.5597 57.6271 67.5028L56.4936 67.277C55.8544 67.1491 55.3786 66.9276 55.0661 66.6122C54.7564 66.2969 54.6016 65.8949 54.6016 65.4062C54.6016 64.9858 54.7152 64.6236 54.9425 64.3196C55.1726 64.0156 55.495 63.7812 55.9098 63.6165C56.3274 63.4517 56.8161 63.3693 57.3757 63.3693C58.2024 63.3693 58.853 63.544 59.3274 63.8935C59.8047 64.2429 60.0831 64.7187 60.1626 65.321ZM61.4549 70V63.4545H63.2702V70H61.4549ZM62.3668 62.6108C62.0969 62.6108 61.8654 62.5213 61.6722 62.3423C61.4819 62.1605 61.3867 61.9432 61.3867 61.6903C61.3867 61.4403 61.4819 61.2259 61.6722 61.0469C61.8654 60.8651 62.0969 60.7741 62.3668 60.7741C62.6367 60.7741 62.8668 60.8651 63.0572 61.0469C63.2504 61.2259 63.3469 61.4403 63.3469 61.6903C63.3469 61.9432 63.2504 62.1605 63.0572 62.3423C62.8668 62.5213 62.6367 62.6108 62.3668 62.6108ZM67.6818 70.1278C67.0114 70.1278 66.4347 69.9858 65.9517 69.7017C65.4716 69.4148 65.1023 69.017 64.8438 68.5085C64.5881 68 64.4602 67.4148 64.4602 66.7528C64.4602 66.0824 64.5895 65.4943 64.848 64.9886C65.1094 64.4801 65.4801 64.0838 65.9602 63.7997C66.4403 63.5128 67.0114 63.3693 67.6733 63.3693C68.2443 63.3693 68.7443 63.473 69.1733 63.6804C69.6023 63.8878 69.9418 64.179 70.1918 64.554C70.4418 64.929 70.5795 65.3693 70.6051 65.875H68.892C68.8438 65.5483 68.7159 65.2855 68.5085 65.0866C68.304 64.8849 68.0355 64.7841 67.7031 64.7841C67.4219 64.7841 67.1761 64.8608 66.9659 65.0142C66.7585 65.1648 66.5966 65.3849 66.4801 65.6747C66.3636 65.9645 66.3054 66.3153 66.3054 66.7273C66.3054 67.1449 66.3622 67.5 66.4759 67.7926C66.5923 68.0852 66.7557 68.3082 66.9659 68.4616C67.1761 68.6151 67.4219 68.6918 67.7031 68.6918C67.9105 68.6918 68.0966 68.6491 68.2614 68.5639C68.429 68.4787 68.5668 68.3551 68.6747 68.1932C68.7855 68.0284 68.858 67.831 68.892 67.6009H70.6051C70.5767 68.1009 70.4403 68.5412 70.196 68.9219C69.9545 69.2997 69.6207 69.5952 69.1946 69.8082C68.7685 70.0213 68.2642 70.1278 67.6818 70.1278ZM73.6339 70.1236C73.2163 70.1236 72.8441 70.0511 72.5174 69.9062C72.1907 69.7585 71.9322 69.5412 71.7418 69.2543C71.5543 68.9645 71.4606 68.6037 71.4606 68.1719C71.4606 67.8082 71.5273 67.5028 71.6609 67.2557C71.7944 67.0085 71.9762 66.8097 72.2063 66.6591C72.4364 66.5085 72.6978 66.3949 72.9904 66.3182C73.2859 66.2415 73.5955 66.1875 73.9194 66.1562C74.3001 66.1165 74.6069 66.0795 74.8398 66.0455C75.0728 66.0085 75.2418 65.9545 75.3469 65.8835C75.4521 65.8125 75.5046 65.7074 75.5046 65.5682V65.5426C75.5046 65.2727 75.4194 65.0639 75.2489 64.9162C75.0813 64.7685 74.8427 64.6946 74.533 64.6946C74.2063 64.6946 73.9464 64.767 73.7532 64.9119C73.56 65.054 73.4322 65.233 73.3697 65.4489L71.6907 65.3125C71.7759 64.9148 71.9435 64.571 72.1935 64.2812C72.4435 63.9886 72.766 63.7642 73.1609 63.608C73.5586 63.4489 74.0188 63.3693 74.5415 63.3693C74.9052 63.3693 75.2532 63.4119 75.5856 63.4972C75.9208 63.5824 76.2177 63.7145 76.4762 63.8935C76.7376 64.0724 76.9435 64.3026 77.0941 64.5838C77.2447 64.8622 77.32 65.196 77.32 65.5852V70H75.5984V69.0923H75.5472C75.4421 69.2969 75.3015 69.4773 75.1254 69.6335C74.9492 69.7869 74.7376 69.9077 74.4904 69.9957C74.2433 70.081 73.9577 70.1236 73.6339 70.1236ZM74.1538 68.8707C74.4208 68.8707 74.6566 68.8182 74.8612 68.7131C75.0657 68.6051 75.2262 68.4602 75.3427 68.2784C75.4592 68.0966 75.5174 67.8906 75.5174 67.6605V66.9659C75.4606 67.0028 75.3825 67.0369 75.283 67.0682C75.1864 67.0966 75.0771 67.1236 74.9549 67.1491C74.8327 67.1719 74.7106 67.1932 74.5884 67.2131C74.4663 67.2301 74.3555 67.2457 74.256 67.2599C74.043 67.2912 73.8569 67.3409 73.6978 67.4091C73.5387 67.4773 73.4151 67.5696 73.3271 67.6861C73.239 67.7997 73.195 67.9418 73.195 68.1122C73.195 68.3594 73.2844 68.5483 73.4634 68.679C73.6452 68.8068 73.8754 68.8707 74.1538 68.8707ZM80.5437 61.2727V70H78.7283V61.2727H80.5437ZM84.8093 61.2727H87.0849L89.4883 67.1364H89.5906L91.994 61.2727H94.2695V70H92.4798V64.3196H92.4073L90.1488 69.9574H88.93L86.6715 64.2983H86.5991V70H84.8093V61.2727ZM97.6222 70.1236C97.2045 70.1236 96.8324 70.0511 96.5057 69.9062C96.179 69.7585 95.9205 69.5412 95.7301 69.2543C95.5426 68.9645 95.4489 68.6037 95.4489 68.1719C95.4489 67.8082 95.5156 67.5028 95.6491 67.2557C95.7827 67.0085 95.9645 66.8097 96.1946 66.6591C96.4247 66.5085 96.6861 66.3949 96.9787 66.3182C97.2741 66.2415 97.5838 66.1875 97.9077 66.1562C98.2884 66.1165 98.5952 66.0795 98.8281 66.0455C99.0611 66.0085 99.2301 65.9545 99.3352 65.8835C99.4403 65.8125 99.4929 65.7074 99.4929 65.5682V65.5426C99.4929 65.2727 99.4077 65.0639 99.2372 64.9162C99.0696 64.7685 98.831 64.6946 98.5213 64.6946C98.1946 64.6946 97.9347 64.767 97.7415 64.9119C97.5483 65.054 97.4205 65.233 97.358 65.4489L95.679 65.3125C95.7642 64.9148 95.9318 64.571 96.1818 64.2812C96.4318 63.9886 96.7543 63.7642 97.1491 63.608C97.5469 63.4489 98.0071 63.3693 98.5298 63.3693C98.8935 63.3693 99.2415 63.4119 99.5739 63.4972C99.9091 63.5824 100.206 63.7145 100.464 63.8935C100.726 64.0724 100.932 64.3026 101.082 64.5838C101.233 64.8622 101.308 65.196 101.308 65.5852V70H99.5866V69.0923H99.5355C99.4304 69.2969 99.2898 69.4773 99.1136 69.6335C98.9375 69.7869 98.7259 69.9077 98.4787 69.9957C98.2315 70.081 97.946 70.1236 97.6222 70.1236ZM98.142 68.8707C98.4091 68.8707 98.6449 68.8182 98.8494 68.7131C99.054 68.6051 99.2145 68.4602 99.331 68.2784C99.4474 68.0966 99.5057 67.8906 99.5057 67.6605V66.9659C99.4489 67.0028 99.3707 67.0369 99.2713 67.0682C99.1747 67.0966 99.0653 67.1236 98.9432 67.1491C98.821 67.1719 98.6989 67.1932 98.5767 67.2131C98.4545 67.2301 98.3438 67.2457 98.2443 67.2599C98.0313 67.2912 97.8452 67.3409 97.6861 67.4091C97.527 67.4773 97.4034 67.5696 97.3153 67.6861C97.2273 67.7997 97.1832 67.9418 97.1832 68.1122C97.1832 68.3594 97.2727 68.5483 97.4517 68.679C97.6335 68.8068 97.8636 68.8707 98.142 68.8707ZM105.674 70.1278C105.004 70.1278 104.427 69.9858 103.944 69.7017C103.464 69.4148 103.094 69.017 102.836 68.5085C102.58 68 102.452 67.4148 102.452 66.7528C102.452 66.0824 102.582 65.4943 102.84 64.9886C103.102 64.4801 103.472 64.0838 103.952 63.7997C104.433 63.5128 105.004 63.3693 105.665 63.3693C106.237 63.3693 106.737 63.473 107.165 63.6804C107.594 63.8878 107.934 64.179 108.184 64.554C108.434 64.929 108.572 65.3693 108.597 65.875H106.884C106.836 65.5483 106.708 65.2855 106.501 65.0866C106.296 64.8849 106.028 64.7841 105.695 64.7841C105.414 64.7841 105.168 64.8608 104.958 65.0142C104.751 65.1648 104.589 65.3849 104.472 65.6747C104.356 65.9645 104.298 66.3153 104.298 66.7273C104.298 67.1449 104.354 67.5 104.468 67.7926C104.585 68.0852 104.748 68.3082 104.958 68.4616C105.168 68.6151 105.414 68.6918 105.695 68.6918C105.903 68.6918 106.089 68.6491 106.254 68.5639C106.421 68.4787 106.559 68.3551 106.667 68.1932C106.778 68.0284 106.85 67.831 106.884 67.6009H108.597C108.569 68.1009 108.433 68.5412 108.188 68.9219C107.947 69.2997 107.613 69.5952 107.187 69.8082C106.761 70.0213 106.256 70.1278 105.674 70.1278ZM111.575 66.2159V70H109.76V61.2727H111.524V64.6094H111.6C111.748 64.223 111.987 63.9205 112.316 63.7017C112.646 63.4801 113.059 63.3693 113.556 63.3693C114.011 63.3693 114.407 63.4688 114.745 63.6676C115.086 63.8636 115.35 64.1463 115.538 64.5156C115.728 64.8821 115.822 65.321 115.819 65.8324V70H114.004V66.1562C114.007 65.7528 113.904 65.4389 113.697 65.2145C113.493 64.9901 113.206 64.8778 112.836 64.8778C112.589 64.8778 112.37 64.9304 112.18 65.0355C111.993 65.1406 111.845 65.294 111.737 65.4957C111.632 65.6946 111.578 65.9347 111.575 66.2159ZM117.248 70V63.4545H119.063V70H117.248ZM118.16 62.6108C117.89 62.6108 117.658 62.5213 117.465 62.3423C117.275 62.1605 117.18 61.9432 117.18 61.6903C117.18 61.4403 117.275 61.2259 117.465 61.0469C117.658 60.8651 117.89 60.7741 118.16 60.7741C118.43 60.7741 118.66 60.8651 118.85 61.0469C119.043 61.2259 119.14 61.4403 119.14 61.6903C119.14 61.9432 119.043 62.1605 118.85 62.3423C118.66 62.5213 118.43 62.6108 118.16 62.6108ZM122.333 66.2159V70H120.517V63.4545H122.248V64.6094H122.324C122.469 64.2287 122.712 63.9276 123.053 63.706C123.394 63.4815 123.807 63.3693 124.293 63.3693C124.748 63.3693 125.144 63.4688 125.482 63.6676C125.82 63.8665 126.083 64.1506 126.27 64.5199C126.458 64.8864 126.551 65.3239 126.551 65.8324V70H124.736V66.1562C124.739 65.7557 124.637 65.4432 124.429 65.2188C124.222 64.9915 123.936 64.8778 123.573 64.8778C123.328 64.8778 123.113 64.9304 122.925 65.0355C122.74 65.1406 122.596 65.294 122.49 65.4957C122.388 65.6946 122.336 65.9347 122.333 66.2159ZM130.965 70.1278C130.292 70.1278 129.712 69.9915 129.227 69.7188C128.744 69.4432 128.371 69.054 128.11 68.5511C127.849 68.0455 127.718 67.4474 127.718 66.7571C127.718 66.0838 127.849 65.4929 128.11 64.9844C128.371 64.4759 128.739 64.0795 129.214 63.7955C129.691 63.5114 130.251 63.3693 130.893 63.3693C131.325 63.3693 131.727 63.4389 132.099 63.5781C132.474 63.7145 132.8 63.9205 133.079 64.196C133.36 64.4716 133.579 64.8182 133.735 65.2358C133.891 65.6506 133.969 66.1364 133.969 66.6932V67.1918H128.442V66.0668H132.261C132.261 65.8054 132.204 65.5739 132.09 65.3722C131.977 65.1705 131.819 65.0128 131.617 64.8991C131.418 64.7827 131.187 64.7244 130.923 64.7244C130.647 64.7244 130.403 64.7884 130.19 64.9162C129.979 65.0412 129.815 65.2102 129.695 65.4233C129.576 65.6335 129.515 65.8679 129.512 66.1264V67.196C129.512 67.5199 129.572 67.7997 129.691 68.0355C129.813 68.2713 129.985 68.4531 130.207 68.581C130.428 68.7088 130.691 68.7727 130.995 68.7727C131.197 68.7727 131.381 68.7443 131.549 68.6875C131.717 68.6307 131.86 68.5455 131.979 68.4318C132.099 68.3182 132.19 68.179 132.252 68.0142L133.931 68.125C133.846 68.5284 133.671 68.8807 133.407 69.1818C133.146 69.4801 132.808 69.7131 132.393 69.8807C131.981 70.0455 131.505 70.1278 130.965 70.1278ZM137.966 70V61.2727H139.811V68.4787H143.552V70H137.966ZM147.723 70.1278C147.05 70.1278 146.47 69.9915 145.984 69.7188C145.501 69.4432 145.129 69.054 144.868 68.5511C144.607 68.0455 144.476 67.4474 144.476 66.7571C144.476 66.0838 144.607 65.4929 144.868 64.9844C145.129 64.4759 145.497 64.0795 145.972 63.7955C146.449 63.5114 147.009 63.3693 147.651 63.3693C148.082 63.3693 148.484 63.4389 148.857 63.5781C149.232 63.7145 149.558 63.9205 149.837 64.196C150.118 64.4716 150.337 64.8182 150.493 65.2358C150.649 65.6506 150.727 66.1364 150.727 66.6932V67.1918H145.2V66.0668H149.018C149.018 65.8054 148.962 65.5739 148.848 65.3722C148.734 65.1705 148.577 65.0128 148.375 64.8991C148.176 64.7827 147.945 64.7244 147.68 64.7244C147.405 64.7244 147.161 64.7884 146.947 64.9162C146.737 65.0412 146.572 65.2102 146.453 65.4233C146.334 65.6335 146.273 65.8679 146.27 66.1264V67.196C146.27 67.5199 146.33 67.7997 146.449 68.0355C146.571 68.2713 146.743 68.4531 146.964 68.581C147.186 68.7088 147.449 68.7727 147.753 68.7727C147.955 68.7727 148.139 68.7443 148.307 68.6875C148.474 68.6307 148.618 68.5455 148.737 68.4318C148.857 68.3182 148.947 68.179 149.01 68.0142L150.689 68.125C150.604 68.5284 150.429 68.8807 150.165 69.1818C149.903 69.4801 149.565 69.7131 149.151 69.8807C148.739 70.0455 148.263 70.1278 147.723 70.1278ZM153.778 70.1236C153.361 70.1236 152.989 70.0511 152.662 69.9062C152.335 69.7585 152.077 69.5412 151.886 69.2543C151.699 68.9645 151.605 68.6037 151.605 68.1719C151.605 67.8082 151.672 67.5028 151.805 67.2557C151.939 67.0085 152.121 66.8097 152.351 66.6591C152.581 66.5085 152.842 66.3949 153.135 66.3182C153.43 66.2415 153.74 66.1875 154.064 66.1562C154.445 66.1165 154.751 66.0795 154.984 66.0455C155.217 66.0085 155.386 65.9545 155.491 65.8835C155.597 65.8125 155.649 65.7074 155.649 65.5682V65.5426C155.649 65.2727 155.564 65.0639 155.393 64.9162C155.226 64.7685 154.987 64.6946 154.678 64.6946C154.351 64.6946 154.091 64.767 153.898 64.9119C153.705 65.054 153.577 65.233 153.514 65.4489L151.835 65.3125C151.92 64.9148 152.088 64.571 152.338 64.2812C152.588 63.9886 152.911 63.7642 153.305 63.608C153.703 63.4489 154.163 63.3693 154.686 63.3693C155.05 63.3693 155.398 63.4119 155.73 63.4972C156.065 63.5824 156.362 63.7145 156.621 63.8935C156.882 64.0724 157.088 64.3026 157.239 64.5838C157.389 64.8622 157.464 65.196 157.464 65.5852V70H155.743V69.0923H155.692C155.587 69.2969 155.446 69.4773 155.27 69.6335C155.094 69.7869 154.882 69.9077 154.635 69.9957C154.388 70.081 154.102 70.1236 153.778 70.1236ZM154.298 68.8707C154.565 68.8707 154.801 68.8182 155.006 68.7131C155.21 68.6051 155.371 68.4602 155.487 68.2784C155.604 68.0966 155.662 67.8906 155.662 67.6605V66.9659C155.605 67.0028 155.527 67.0369 155.428 67.0682C155.331 67.0966 155.222 67.1236 155.099 67.1491C154.977 67.1719 154.855 67.1932 154.733 67.2131C154.611 67.2301 154.5 67.2457 154.401 67.2599C154.188 67.2912 154.001 67.3409 153.842 67.4091C153.683 67.4773 153.56 67.5696 153.472 67.6861C153.384 67.7997 153.339 67.9418 153.339 68.1122C153.339 68.3594 153.429 68.5483 153.608 68.679C153.79 68.8068 154.02 68.8707 154.298 68.8707ZM158.873 70V63.4545H160.633V64.5966H160.701C160.82 64.1903 161.021 63.8835 161.302 63.6761C161.583 63.4659 161.907 63.3608 162.273 63.3608C162.364 63.3608 162.462 63.3665 162.567 63.3778C162.673 63.3892 162.765 63.4048 162.844 63.4247V65.0355C162.759 65.0099 162.641 64.9872 162.491 64.9673C162.34 64.9474 162.202 64.9375 162.077 64.9375C161.81 64.9375 161.572 64.9957 161.362 65.1122C161.154 65.2259 160.989 65.3849 160.867 65.5895C160.748 65.794 160.688 66.0298 160.688 66.2969V70H158.873ZM165.598 66.2159V70H163.783V63.4545H165.513V64.6094H165.59C165.735 64.2287 165.978 63.9276 166.319 63.706C166.659 63.4815 167.073 63.3693 167.559 63.3693C168.013 63.3693 168.409 63.4688 168.748 63.6676C169.086 63.8665 169.348 64.1506 169.536 64.5199C169.723 64.8864 169.817 65.3239 169.817 65.8324V70H168.002V66.1562C168.005 65.7557 167.902 65.4432 167.695 65.2188C167.488 64.9915 167.202 64.8778 166.838 64.8778C166.594 64.8778 166.378 64.9304 166.191 65.0355C166.006 65.1406 165.861 65.294 165.756 65.4957C165.654 65.6946 165.601 65.9347 165.598 66.2159ZM171.248 70V63.4545H173.063V70H171.248ZM172.16 62.6108C171.89 62.6108 171.658 62.5213 171.465 62.3423C171.275 62.1605 171.18 61.9432 171.18 61.6903C171.18 61.4403 171.275 61.2259 171.465 61.0469C171.658 60.8651 171.89 60.7741 172.16 60.7741C172.43 60.7741 172.66 60.8651 172.85 61.0469C173.043 61.2259 173.14 61.4403 173.14 61.6903C173.14 61.9432 173.043 62.1605 172.85 62.3423C172.66 62.5213 172.43 62.6108 172.16 62.6108ZM176.333 66.2159V70H174.517V63.4545H176.248V64.6094H176.324C176.469 64.2287 176.712 63.9276 177.053 63.706C177.394 63.4815 177.807 63.3693 178.293 63.3693C178.748 63.3693 179.144 63.4688 179.482 63.6676C179.82 63.8665 180.083 64.1506 180.27 64.5199C180.458 64.8864 180.551 65.3239 180.551 65.8324V70H178.736V66.1562C178.739 65.7557 178.637 65.4432 178.429 65.2188C178.222 64.9915 177.936 64.8778 177.573 64.8778C177.328 64.8778 177.113 64.9304 176.925 65.0355C176.74 65.1406 176.596 65.294 176.49 65.4957C176.388 65.6946 176.336 65.9347 176.333 66.2159ZM184.931 72.5909C184.343 72.5909 183.839 72.5099 183.418 72.348C183.001 72.1889 182.668 71.9716 182.421 71.696C182.174 71.4205 182.013 71.1108 181.94 70.767L183.619 70.5412C183.67 70.6719 183.751 70.794 183.862 70.9077C183.972 71.0213 184.119 71.1122 184.3 71.1804C184.485 71.2514 184.71 71.2869 184.974 71.2869C185.369 71.2869 185.694 71.1903 185.95 70.9972C186.208 70.8068 186.337 70.4872 186.337 70.0384V68.8409H186.261C186.181 69.0227 186.062 69.1946 185.903 69.3565C185.744 69.5185 185.539 69.6506 185.289 69.7528C185.039 69.8551 184.741 69.9062 184.394 69.9062C183.903 69.9062 183.455 69.7926 183.052 69.5653C182.651 69.3352 182.332 68.9844 182.093 68.5128C181.857 68.0384 181.739 67.4389 181.739 66.7145C181.739 65.973 181.86 65.3537 182.102 64.8565C182.343 64.3594 182.664 63.9872 183.065 63.7401C183.468 63.4929 183.91 63.3693 184.39 63.3693C184.756 63.3693 185.063 63.4318 185.31 63.5568C185.558 63.679 185.756 63.8324 185.907 64.017C186.06 64.1989 186.178 64.3778 186.261 64.554H186.329V63.4545H188.131V70.0639C188.131 70.6207 187.995 71.0866 187.722 71.4616C187.45 71.8366 187.072 72.1179 186.589 72.3054C186.109 72.4957 185.556 72.5909 184.931 72.5909ZM184.969 68.5426C185.262 68.5426 185.509 68.4702 185.711 68.3253C185.915 68.1776 186.072 67.9673 186.18 67.6946C186.29 67.419 186.346 67.0895 186.346 66.706C186.346 66.3224 186.292 65.9901 186.184 65.7088C186.076 65.4247 185.92 65.2045 185.715 65.0483C185.511 64.892 185.262 64.8139 184.969 64.8139C184.671 64.8139 184.42 64.8949 184.215 65.0568C184.011 65.2159 183.856 65.4375 183.751 65.7216C183.646 66.0057 183.593 66.3338 183.593 66.706C183.593 67.0838 183.646 67.4105 183.751 67.6861C183.859 67.9588 184.013 68.1705 184.215 68.321C184.42 68.4687 184.671 68.5426 184.969 68.5426Z" fill="black"/>
<path d="M280.759 70V61.2727H284.202C284.864 61.2727 285.428 61.3991 285.893 61.652C286.359 61.902 286.714 62.25 286.959 62.696C287.206 63.1392 287.33 63.6506 287.33 64.2301C287.33 64.8097 287.205 65.321 286.955 65.7642C286.705 66.2074 286.342 66.5526 285.868 66.7997C285.396 67.0469 284.825 67.1705 284.155 67.1705H281.96V65.6918H283.857C284.212 65.6918 284.504 65.6307 284.734 65.5085C284.967 65.3835 285.141 65.2116 285.254 64.9929C285.371 64.7713 285.429 64.517 285.429 64.2301C285.429 63.9403 285.371 63.6875 285.254 63.4716C285.141 63.2528 284.967 63.0838 284.734 62.9645C284.501 62.8423 284.206 62.7812 283.848 62.7812H282.604V70H280.759ZM291.371 70.1278C290.698 70.1278 290.119 69.9915 289.633 69.7188C289.15 69.4432 288.778 69.054 288.516 68.5511C288.255 68.0455 288.124 67.4474 288.124 66.7571C288.124 66.0838 288.255 65.4929 288.516 64.9844C288.778 64.4759 289.146 64.0795 289.62 63.7955C290.097 63.5114 290.657 63.3693 291.299 63.3693C291.731 63.3693 292.133 63.4389 292.505 63.5781C292.88 63.7145 293.207 63.9205 293.485 64.196C293.766 64.4716 293.985 64.8182 294.141 65.2358C294.298 65.6506 294.376 66.1364 294.376 66.6932V67.1918H288.849V66.0668H292.667C292.667 65.8054 292.61 65.5739 292.496 65.3722C292.383 65.1705 292.225 65.0128 292.023 64.8991C291.825 64.7827 291.593 64.7244 291.329 64.7244C291.053 64.7244 290.809 64.7884 290.596 64.9162C290.386 65.0412 290.221 65.2102 290.102 65.4233C289.982 65.6335 289.921 65.8679 289.918 66.1264V67.196C289.918 67.5199 289.978 67.7997 290.097 68.0355C290.219 68.2713 290.391 68.4531 290.613 68.581C290.835 68.7088 291.097 68.7727 291.401 68.7727C291.603 68.7727 291.788 68.7443 291.955 68.6875C292.123 68.6307 292.266 68.5455 292.386 68.4318C292.505 68.3182 292.596 68.179 292.658 68.0142L294.337 68.125C294.252 68.5284 294.077 68.8807 293.813 69.1818C293.552 69.4801 293.214 69.7131 292.799 69.8807C292.387 70.0455 291.911 70.1278 291.371 70.1278ZM295.56 70V63.4545H297.32V64.5966H297.388C297.508 64.1903 297.708 63.8835 297.989 63.6761C298.271 63.4659 298.594 63.3608 298.961 63.3608C299.052 63.3608 299.15 63.3665 299.255 63.3778C299.36 63.3892 299.452 63.4048 299.532 63.4247V65.0355C299.447 65.0099 299.329 64.9872 299.178 64.9673C299.028 64.9474 298.89 64.9375 298.765 64.9375C298.498 64.9375 298.259 64.9957 298.049 65.1122C297.842 65.2259 297.677 65.3849 297.555 65.5895C297.435 65.794 297.376 66.0298 297.376 66.2969V70H295.56ZM304.319 63.4545V64.8182H300.279V63.4545H304.319ZM301.203 70V62.9815C301.203 62.5071 301.296 62.1136 301.48 61.8011C301.668 61.4886 301.924 61.2543 302.248 61.098C302.571 60.9418 302.939 60.8636 303.351 60.8636C303.63 60.8636 303.884 60.8849 304.114 60.9276C304.347 60.9702 304.52 61.0085 304.634 61.0426L304.31 62.4062C304.239 62.3835 304.151 62.3622 304.046 62.3423C303.944 62.3224 303.838 62.3125 303.73 62.3125C303.463 62.3125 303.277 62.375 303.172 62.5C303.067 62.6222 303.015 62.794 303.015 63.0156V70H301.203ZM308.151 70.1278C307.489 70.1278 306.916 69.9872 306.433 69.706C305.953 69.4219 305.582 69.027 305.321 68.5213C305.06 68.0128 304.929 67.4233 304.929 66.7528C304.929 66.0767 305.06 65.4858 305.321 64.9801C305.582 64.4716 305.953 64.0767 306.433 63.7955C306.916 63.5114 307.489 63.3693 308.151 63.3693C308.812 63.3693 309.384 63.5114 309.864 63.7955C310.347 64.0767 310.719 64.4716 310.98 64.9801C311.241 65.4858 311.372 66.0767 311.372 66.7528C311.372 67.4233 311.241 68.0128 310.98 68.5213C310.719 69.027 310.347 69.4219 309.864 69.706C309.384 69.9872 308.812 70.1278 308.151 70.1278ZM308.159 68.7216C308.46 68.7216 308.712 68.6364 308.913 68.4659C309.115 68.2926 309.267 68.0568 309.369 67.7585C309.474 67.4602 309.527 67.1207 309.527 66.7401C309.527 66.3594 309.474 66.0199 309.369 65.7216C309.267 65.4233 309.115 65.1875 308.913 65.0142C308.712 64.8409 308.46 64.7543 308.159 64.7543C307.855 64.7543 307.599 64.8409 307.392 65.0142C307.188 65.1875 307.033 65.4233 306.928 65.7216C306.825 66.0199 306.774 66.3594 306.774 66.7401C306.774 67.1207 306.825 67.4602 306.928 67.7585C307.033 68.0568 307.188 68.2926 307.392 68.4659C307.599 68.6364 307.855 68.7216 308.159 68.7216ZM312.553 70V63.4545H314.312V64.5966H314.381C314.5 64.1903 314.7 63.8835 314.982 63.6761C315.263 63.4659 315.587 63.3608 315.953 63.3608C316.044 63.3608 316.142 63.3665 316.247 63.3778C316.352 63.3892 316.445 63.4048 316.524 63.4247V65.0355C316.439 65.0099 316.321 64.9872 316.17 64.9673C316.02 64.9474 315.882 64.9375 315.757 64.9375C315.49 64.9375 315.251 64.9957 315.041 65.1122C314.834 65.2259 314.669 65.3849 314.547 65.5895C314.428 65.794 314.368 66.0298 314.368 66.2969V70H312.553ZM317.463 70V63.4545H319.193V64.6094H319.27C319.406 64.2259 319.633 63.9233 319.951 63.7017C320.27 63.4801 320.65 63.3693 321.093 63.3693C321.542 63.3693 321.924 63.4815 322.24 63.706C322.555 63.9276 322.765 64.2287 322.87 64.6094H322.939C323.072 64.2344 323.314 63.9347 323.663 63.7102C324.015 63.483 324.431 63.3693 324.912 63.3693C325.522 63.3693 326.018 63.5639 326.399 63.9531C326.782 64.3395 326.974 64.8878 326.974 65.598V70H325.163V65.956C325.163 65.5923 325.066 65.3196 324.873 65.1378C324.68 64.956 324.439 64.8651 324.149 64.8651C323.819 64.8651 323.562 64.9702 323.377 65.1804C323.193 65.3878 323.1 65.6619 323.1 66.0028V70H321.341V65.9176C321.341 65.5966 321.248 65.3409 321.064 65.1506C320.882 64.9602 320.642 64.8651 320.343 64.8651C320.142 64.8651 319.96 64.9162 319.798 65.0185C319.639 65.1179 319.512 65.2585 319.419 65.4403C319.325 65.6193 319.278 65.8295 319.278 66.071V70H317.463ZM330.275 70.1236C329.857 70.1236 329.485 70.0511 329.158 69.9062C328.831 69.7585 328.573 69.5412 328.382 69.2543C328.195 68.9645 328.101 68.6037 328.101 68.1719C328.101 67.8082 328.168 67.5028 328.301 67.2557C328.435 67.0085 328.617 66.8097 328.847 66.6591C329.077 66.5085 329.338 66.3949 329.631 66.3182C329.926 66.2415 330.236 66.1875 330.56 66.1562C330.941 66.1165 331.248 66.0795 331.48 66.0455C331.713 66.0085 331.882 65.9545 331.988 65.8835C332.093 65.8125 332.145 65.7074 332.145 65.5682V65.5426C332.145 65.2727 332.06 65.0639 331.89 64.9162C331.722 64.7685 331.483 64.6946 331.174 64.6946C330.847 64.6946 330.587 64.767 330.394 64.9119C330.201 65.054 330.073 65.233 330.01 65.4489L328.331 65.3125C328.417 64.9148 328.584 64.571 328.834 64.2812C329.084 63.9886 329.407 63.7642 329.801 63.608C330.199 63.4489 330.659 63.3693 331.182 63.3693C331.546 63.3693 331.894 63.4119 332.226 63.4972C332.561 63.5824 332.858 63.7145 333.117 63.8935C333.378 64.0724 333.584 64.3026 333.735 64.5838C333.885 64.8622 333.961 65.196 333.961 65.5852V70H332.239V69.0923H332.188C332.083 69.2969 331.942 69.4773 331.766 69.6335C331.59 69.7869 331.378 69.9077 331.131 69.9957C330.884 70.081 330.598 70.1236 330.275 70.1236ZM330.794 68.8707C331.061 68.8707 331.297 68.8182 331.502 68.7131C331.706 68.6051 331.867 68.4602 331.983 68.2784C332.1 68.0966 332.158 67.8906 332.158 67.6605V66.9659C332.101 67.0028 332.023 67.0369 331.924 67.0682C331.827 67.0966 331.718 67.1236 331.596 67.1491C331.473 67.1719 331.351 67.1932 331.229 67.2131C331.107 67.2301 330.996 67.2457 330.897 67.2599C330.684 67.2912 330.498 67.3409 330.338 67.4091C330.179 67.4773 330.056 67.5696 329.968 67.6861C329.88 67.7997 329.836 67.9418 329.836 68.1122C329.836 68.3594 329.925 68.5483 330.104 68.679C330.286 68.8068 330.516 68.8707 330.794 68.8707ZM338.85 63.4545V64.8182H334.909V63.4545H338.85ZM335.804 61.8864H337.619V67.9886C337.619 68.1562 337.645 68.2869 337.696 68.3807C337.747 68.4716 337.818 68.5355 337.909 68.5724C338.002 68.6094 338.11 68.6278 338.233 68.6278C338.318 68.6278 338.403 68.6207 338.488 68.6065C338.574 68.5895 338.639 68.5767 338.684 68.5682L338.97 69.919C338.879 69.9474 338.751 69.9801 338.586 70.017C338.422 70.0568 338.221 70.081 337.985 70.0895C337.548 70.1065 337.164 70.0483 336.835 69.9148C336.508 69.7812 336.254 69.5739 336.072 69.2926C335.89 69.0114 335.801 68.6562 335.804 68.2273V61.8864ZM340.033 70V63.4545H341.848V70H340.033ZM340.945 62.6108C340.675 62.6108 340.444 62.5213 340.25 62.3423C340.06 62.1605 339.965 61.9432 339.965 61.6903C339.965 61.4403 340.06 61.2259 340.25 61.0469C340.444 60.8651 340.675 60.7741 340.945 60.7741C341.215 60.7741 341.445 60.8651 341.635 61.0469C341.828 61.2259 341.925 61.4403 341.925 61.6903C341.925 61.9432 341.828 62.1605 341.635 62.3423C341.445 62.5213 341.215 62.6108 340.945 62.6108ZM349.405 63.4545L347.116 70H345.071L342.783 63.4545H344.7L346.06 68.1378H346.128L347.483 63.4545H349.405ZM353.106 70.1278C352.433 70.1278 351.853 69.9915 351.367 69.7188C350.884 69.4432 350.512 69.054 350.251 68.5511C349.989 68.0455 349.859 67.4474 349.859 66.7571C349.859 66.0838 349.989 65.4929 350.251 64.9844C350.512 64.4759 350.88 64.0795 351.354 63.7955C351.832 63.5114 352.391 63.3693 353.033 63.3693C353.465 63.3693 353.867 63.4389 354.239 63.5781C354.614 63.7145 354.941 63.9205 355.219 64.196C355.501 64.4716 355.719 64.8182 355.876 65.2358C356.032 65.6506 356.11 66.1364 356.11 66.6932V67.1918H350.583V66.0668H354.401C354.401 65.8054 354.344 65.5739 354.231 65.3722C354.117 65.1705 353.96 65.0128 353.758 64.8991C353.559 64.7827 353.327 64.7244 353.063 64.7244C352.788 64.7244 352.543 64.7884 352.33 64.9162C352.12 65.0412 351.955 65.2102 351.836 65.4233C351.717 65.6335 351.656 65.8679 351.653 66.1264V67.196C351.653 67.5199 351.712 67.7997 351.832 68.0355C351.954 68.2713 352.126 68.4531 352.347 68.581C352.569 68.7088 352.832 68.7727 353.136 68.7727C353.337 68.7727 353.522 68.7443 353.69 68.6875C353.857 68.6307 354.001 68.5455 354.12 68.4318C354.239 68.3182 354.33 68.179 354.393 68.0142L356.072 68.125C355.987 68.5284 355.812 68.8807 355.548 69.1818C355.286 69.4801 354.948 69.7131 354.533 69.8807C354.121 70.0455 353.646 70.1278 353.106 70.1278ZM360.106 70V61.2727H363.549C364.211 61.2727 364.775 61.3991 365.241 61.652C365.707 61.902 366.062 62.25 366.306 62.696C366.554 63.1392 366.677 63.6506 366.677 64.2301C366.677 64.8097 366.552 65.321 366.302 65.7642C366.052 66.2074 365.69 66.5526 365.216 66.7997C364.744 67.0469 364.173 67.1705 363.502 67.1705H361.308V65.6918H363.204C363.559 65.6918 363.852 65.6307 364.082 65.5085C364.315 65.3835 364.488 65.2116 364.602 64.9929C364.718 64.7713 364.777 64.517 364.777 64.2301C364.777 63.9403 364.718 63.6875 364.602 63.4716C364.488 63.2528 364.315 63.0838 364.082 62.9645C363.849 62.8423 363.554 62.7812 363.196 62.7812H361.951V70H360.106ZM367.842 70V63.4545H369.602V64.5966H369.67C369.789 64.1903 369.989 63.8835 370.271 63.6761C370.552 63.4659 370.876 63.3608 371.242 63.3608C371.333 63.3608 371.431 63.3665 371.536 63.3778C371.641 63.3892 371.734 63.4048 371.813 63.4247V65.0355C371.728 65.0099 371.61 64.9872 371.46 64.9673C371.309 64.9474 371.171 64.9375 371.046 64.9375C370.779 64.9375 370.54 64.9957 370.33 65.1122C370.123 65.2259 369.958 65.3849 369.836 65.5895C369.717 65.794 369.657 66.0298 369.657 66.2969V70H367.842ZM375.43 70.1278C374.757 70.1278 374.177 69.9915 373.691 69.7188C373.208 69.4432 372.836 69.054 372.575 68.5511C372.314 68.0455 372.183 67.4474 372.183 66.7571C372.183 66.0838 372.314 65.4929 372.575 64.9844C372.836 64.4759 373.204 64.0795 373.679 63.7955C374.156 63.5114 374.716 63.3693 375.358 63.3693C375.789 63.3693 376.191 63.4389 376.564 63.5781C376.939 63.7145 377.265 63.9205 377.544 64.196C377.825 64.4716 378.044 64.8182 378.2 65.2358C378.356 65.6506 378.434 66.1364 378.434 66.6932V67.1918H372.907V66.0668H376.725C376.725 65.8054 376.669 65.5739 376.555 65.3722C376.441 65.1705 376.284 65.0128 376.082 64.8991C375.883 64.7827 375.652 64.7244 375.387 64.7244C375.112 64.7244 374.868 64.7884 374.654 64.9162C374.444 65.0412 374.279 65.2102 374.16 65.4233C374.041 65.6335 373.98 65.8679 373.977 66.1264V67.196C373.977 67.5199 374.037 67.7997 374.156 68.0355C374.278 68.2713 374.45 68.4531 374.672 68.581C374.893 68.7088 375.156 68.7727 375.46 68.7727C375.662 68.7727 375.846 68.7443 376.014 68.6875C376.181 68.6307 376.325 68.5455 376.444 68.4318C376.564 68.3182 376.654 68.179 376.717 68.0142L378.396 68.125C378.311 68.5284 378.136 68.8807 377.872 69.1818C377.61 69.4801 377.272 69.7131 376.858 69.8807C376.446 70.0455 375.97 70.1278 375.43 70.1278ZM382.031 70.1065C381.534 70.1065 381.083 69.9787 380.68 69.723C380.279 69.4645 379.961 69.0852 379.725 68.5852C379.493 68.0824 379.376 67.4659 379.376 66.7358C379.376 65.9858 379.497 65.3622 379.738 64.8651C379.98 64.3651 380.301 63.9915 380.701 63.7443C381.105 63.4943 381.547 63.3693 382.027 63.3693C382.393 63.3693 382.699 63.4318 382.943 63.5568C383.19 63.679 383.389 63.8324 383.539 64.017C383.693 64.1989 383.809 64.3778 383.889 64.554H383.944V61.2727H385.755V70H383.966V68.9517H383.889C383.804 69.1335 383.683 69.3139 383.527 69.4929C383.373 69.669 383.173 69.8153 382.926 69.9318C382.681 70.0483 382.383 70.1065 382.031 70.1065ZM382.606 68.6619C382.899 68.6619 383.146 68.5824 383.348 68.4233C383.552 68.2614 383.708 68.0355 383.816 67.7457C383.927 67.456 383.983 67.1165 383.983 66.7273C383.983 66.3381 383.929 66 383.821 65.7131C383.713 65.4261 383.556 65.2045 383.352 65.0483C383.147 64.892 382.899 64.8139 382.606 64.8139C382.308 64.8139 382.056 64.8949 381.852 65.0568C381.647 65.2187 381.493 65.4432 381.387 65.7301C381.282 66.017 381.23 66.3494 381.23 66.7273C381.23 67.108 381.282 67.4446 381.387 67.7372C381.495 68.027 381.65 68.2543 381.852 68.419C382.056 68.581 382.308 68.6619 382.606 68.6619ZM387.248 70V63.4545H389.063V70H387.248ZM388.16 62.6108C387.89 62.6108 387.658 62.5213 387.465 62.3423C387.275 62.1605 387.18 61.9432 387.18 61.6903C387.18 61.4403 387.275 61.2259 387.465 61.0469C387.658 60.8651 387.89 60.7741 388.16 60.7741C388.43 60.7741 388.66 60.8651 388.85 61.0469C389.043 61.2259 389.14 61.4403 389.14 61.6903C389.14 61.9432 389.043 62.1605 388.85 62.3423C388.66 62.5213 388.43 62.6108 388.16 62.6108ZM393.475 70.1278C392.804 70.1278 392.228 69.9858 391.745 69.7017C391.265 69.4148 390.895 69.017 390.637 68.5085C390.381 68 390.253 67.4148 390.253 66.7528C390.253 66.0824 390.382 65.4943 390.641 64.9886C390.902 64.4801 391.273 64.0838 391.753 63.7997C392.233 63.5128 392.804 63.3693 393.466 63.3693C394.037 63.3693 394.537 63.473 394.966 63.6804C395.395 63.8878 395.735 64.179 395.985 64.554C396.235 64.929 396.373 65.3693 396.398 65.875H394.685C394.637 65.5483 394.509 65.2855 394.301 65.0866C394.097 64.8849 393.828 64.7841 393.496 64.7841C393.215 64.7841 392.969 64.8608 392.759 65.0142C392.551 65.1648 392.39 65.3849 392.273 65.6747C392.157 65.9645 392.098 66.3153 392.098 66.7273C392.098 67.1449 392.155 67.5 392.269 67.7926C392.385 68.0852 392.549 68.3082 392.759 68.4616C392.969 68.6151 393.215 68.6918 393.496 68.6918C393.703 68.6918 393.89 68.6491 394.054 68.5639C394.222 68.4787 394.36 68.3551 394.468 68.1932C394.578 68.0284 394.651 67.831 394.685 67.6009H396.398C396.37 68.1009 396.233 68.5412 395.989 68.9219C395.748 69.2997 395.414 69.5952 394.988 69.8082C394.561 70.0213 394.057 70.1278 393.475 70.1278ZM401.042 63.4545V64.8182H397.1V63.4545H401.042ZM397.995 61.8864H399.81V67.9886C399.81 68.1562 399.836 68.2869 399.887 68.3807C399.938 68.4716 400.009 68.5355 400.1 68.5724C400.194 68.6094 400.302 68.6278 400.424 68.6278C400.509 68.6278 400.594 68.6207 400.68 68.6065C400.765 68.5895 400.83 68.5767 400.876 68.5682L401.161 69.919C401.07 69.9474 400.942 69.9801 400.778 70.017C400.613 70.0568 400.413 70.081 400.177 70.0895C399.739 70.1065 399.356 70.0483 399.026 69.9148C398.7 69.7812 398.445 69.5739 398.263 69.2926C398.082 69.0114 397.992 68.6562 397.995 68.2273V61.8864ZM402.224 70V63.4545H404.04V70H402.224ZM403.136 62.6108C402.866 62.6108 402.635 62.5213 402.442 62.3423C402.251 62.1605 402.156 61.9432 402.156 61.6903C402.156 61.4403 402.251 61.2259 402.442 61.0469C402.635 60.8651 402.866 60.7741 403.136 60.7741C403.406 60.7741 403.636 60.8651 403.827 61.0469C404.02 61.2259 404.116 61.4403 404.116 61.6903C404.116 61.9432 404.02 62.1605 403.827 62.3423C403.636 62.5213 403.406 62.6108 403.136 62.6108ZM408.451 70.1278C407.789 70.1278 407.217 69.9872 406.734 69.706C406.254 69.4219 405.883 69.027 405.622 68.5213C405.36 68.0128 405.23 67.4233 405.23 66.7528C405.23 66.0767 405.36 65.4858 405.622 64.9801C405.883 64.4716 406.254 64.0767 406.734 63.7955C407.217 63.5114 407.789 63.3693 408.451 63.3693C409.113 63.3693 409.684 63.5114 410.164 63.7955C410.647 64.0767 411.02 64.4716 411.281 64.9801C411.542 65.4858 411.673 66.0767 411.673 66.7528C411.673 67.4233 411.542 68.0128 411.281 68.5213C411.02 69.027 410.647 69.4219 410.164 69.706C409.684 69.9872 409.113 70.1278 408.451 70.1278ZM408.46 68.7216C408.761 68.7216 409.012 68.6364 409.214 68.4659C409.416 68.2926 409.568 68.0568 409.67 67.7585C409.775 67.4602 409.828 67.1207 409.828 66.7401C409.828 66.3594 409.775 66.0199 409.67 65.7216C409.568 65.4233 409.416 65.1875 409.214 65.0142C409.012 64.8409 408.761 64.7543 408.46 64.7543C408.156 64.7543 407.9 64.8409 407.693 65.0142C407.488 65.1875 407.333 65.4233 407.228 65.7216C407.126 66.0199 407.075 66.3594 407.075 66.7401C407.075 67.1207 407.126 67.4602 407.228 67.7585C407.333 68.0568 407.488 68.2926 407.693 68.4659C407.9 68.6364 408.156 68.7216 408.46 68.7216ZM414.669 66.2159V70H412.853V63.4545H414.583V64.6094H414.66C414.805 64.2287 415.048 63.9276 415.389 63.706C415.73 63.4815 416.143 63.3693 416.629 63.3693C417.083 63.3693 417.48 63.4688 417.818 63.6676C418.156 63.8665 418.419 64.1506 418.606 64.5199C418.794 64.8864 418.887 65.3239 418.887 65.8324V70H417.072V66.1562C417.075 65.7557 416.973 65.4432 416.765 65.2188C416.558 64.9915 416.272 64.8778 415.909 64.8778C415.664 64.8778 415.449 64.9304 415.261 65.0355C415.076 65.1406 414.931 65.294 414.826 65.4957C414.724 65.6946 414.672 65.9347 414.669 66.2159Z" fill="black"/>
</svg>
